<svg width="95" height="20" viewBox="0 0 95 20" fill="none" xmlns="http://www.w3.org/2000/svg">
<path d="M89.5924 9.29904L87.9104 11.7415L91.5592 16.6303H95L89.5924 9.29904Z" fill="#C78233"/>
<path d="M86.6283 13.6028L88.7543 16.6302H91.5592L87.9104 11.7414L86.6283 13.6028Z" fill="#F3A54B"/>
<path d="M94.9683 0.637711H92.0119L88.0303 6.27637L89.5128 8.40813L94.9683 0.637711Z" fill="#C78233"/>
<path d="M89.3 0.637711L86.6283 4.26065L88.0303 6.27637L92.0119 0.637711H89.3Z" fill="#F3A54B"/>
<path d="M83.0371 9.17242L77.3025 16.9467H80.3721L86.1508 9.17242H83.0371Z" fill="#F3A54B"/>
<path d="M86.1507 9.17242L80.3721 16.9467H83.5481L86.1507 13.2403L89.0075 9.17242H86.1507Z" fill="#C78233"/>
<path d="M83.0371 8.71886L77.3025 0.944611H80.3721L86.1508 8.71886H83.0371Z" fill="#F3A54B"/>
<path d="M86.1507 8.71886L80.3721 0.944611H83.5481L86.1507 4.65097L89.0075 8.71886H86.1507Z" fill="#C78233"/>
<path d="M11.5123 0.783371L9.01995 10.5292L6.5094 0.783371H0V16.8008H4.05351V4.58563L7.17204 16.8008H10.841L13.9634 4.58563V16.8008H18.0178V0.783371H11.5123Z" fill="white"/>
<mask id="mask0_4313_1465" style="mask-type:luminance" maskUnits="userSpaceOnUse" x="0" y="0" width="19" height="17">
<path d="M11.5123 0.782455L9.01996 10.5293L6.50941 0.782455H0.000976562V16.8009H4.05449V4.58567L7.17205 16.8009H10.842L13.9643 4.58567V16.8009H18.0179V0.782455H11.5123Z" fill="white"/>
</mask>
<g mask="url(#mask0_4313_1465)">
<path d="M8.85292 -8.22753L-8.00708 8.92932L9.16688 25.8061L26.0269 8.64926L8.85292 -8.22753Z" fill="white"/>
</g>
<path d="M25.5898 0.783371L19.5695 16.8008H24.6232L25.4037 14.157L26.4797 10.6942L28.2288 4.93565L29.9972 10.6942L31.0232 14.157L31.8249 16.8008H37.009L30.9887 0.783371H25.5898Z" fill="white"/>
<mask id="mask1_4313_1465" style="mask-type:luminance" maskUnits="userSpaceOnUse" x="19" y="0" width="19" height="17">
<path d="M25.5908 0.782455L19.5704 16.8009H24.6241L25.4047 14.157L26.4797 10.6933L28.2289 4.93474L29.9972 10.6933L31.0242 14.157L31.8259 16.8009H37.0091L30.9897 0.782455H25.5908Z" fill="white"/>
</mask>
<g mask="url(#mask1_4313_1465)">
<path d="M28.1371 -7.93877L11.5621 8.92807L28.4413 25.5152L45.0163 8.64833L28.1371 -7.93877Z" fill="white"/>
</g>
<path d="M35.9158 0.783371V4.73906H40.9637V16.8008H45.9138V4.73906H50.9608V0.783371H35.9158Z" fill="white"/>
<mask id="mask2_4313_1465" style="mask-type:luminance" maskUnits="userSpaceOnUse" x="35" y="0" width="16" height="17">
<path d="M35.9158 0.782455V4.73815H40.9637V16.8009H45.9139V4.73815H50.9618V0.782455H35.9158Z" fill="white"/>
</mask>
<g mask="url(#mask2_4313_1465)">
<path d="M43.3062 -6.74298L27.9067 8.92758L43.5691 24.3189L58.9686 8.64838L43.3062 -6.74298Z" fill="white"/>
</g>
<path d="M58.2394 4.01706H60.4134C61.3167 4.01706 61.9323 4.15547 62.2603 4.43229C62.5873 4.70943 62.7522 5.10356 62.7522 5.62331C62.7569 5.95962 62.6466 6.28743 62.4396 6.55254C62.2446 6.81435 61.9586 6.99362 61.6379 7.05503C60.989 7.20079 60.5518 7.27336 60.3261 7.27272H58.2394V4.01706ZM53.2672 0.782502V16.7971H58.2394V10.3001H58.6757C59.1092 10.2944 59.5336 10.4242 59.8898 10.6713C60.1519 10.863 60.4501 11.2748 60.7845 11.9064L63.4312 16.7971H69.0238L66.6264 12.1557C66.4281 11.8023 66.1959 11.4689 65.9331 11.1603C65.5869 10.7298 65.3242 10.4497 65.142 10.3184C64.8728 10.1221 64.4432 9.92519 63.8531 9.72765C64.5896 9.56015 65.1691 9.34885 65.5917 9.09377C66.2367 8.71145 66.7745 8.17206 67.1548 7.52588C67.5339 6.88146 67.7235 6.1143 67.7235 5.22439C67.7235 4.2015 67.4757 3.3362 66.9803 2.62849C66.5098 1.93725 65.8209 1.42396 65.024 1.17088C64.2159 0.908127 63.047 0.776749 61.5171 0.776749L53.2672 0.782502Z" fill="white"/>
<mask id="mask3_4313_1465" style="mask-type:luminance" maskUnits="userSpaceOnUse" x="53" y="0" width="17" height="17">
<path d="M58.2394 4.01706H60.4134C61.3167 4.01706 61.9323 4.15547 62.2603 4.43229C62.5873 4.70943 62.7522 5.10356 62.7522 5.62331C62.7569 5.95962 62.6466 6.28743 62.4396 6.55254C62.2446 6.81435 61.9586 6.99362 61.6379 7.05503C60.989 7.20079 60.5518 7.27336 60.3261 7.27272H58.2394V4.01706ZM53.2672 0.782502V16.7971H58.2394V10.3001H58.6757C59.1092 10.2944 59.5336 10.4242 59.8898 10.6713C60.1519 10.863 60.4501 11.2748 60.7845 11.9064L63.4312 16.7971H69.0238L66.6264 12.1557C66.4281 11.8023 66.1959 11.4689 65.9331 11.1603C65.5869 10.7298 65.3242 10.4497 65.142 10.3184C64.8728 10.1221 64.4432 9.92519 63.8531 9.72765C64.5896 9.56015 65.1691 9.34885 65.5917 9.09377C66.2367 8.71145 66.7745 8.17206 67.1548 7.52588C67.5339 6.88146 67.7235 6.1143 67.7235 5.22439C67.7235 4.2015 67.4757 3.3362 66.9803 2.62849C66.5098 1.93725 65.8209 1.42396 65.024 1.17088C64.2159 0.908127 63.047 0.776749 61.5171 0.776749L53.2672 0.782502Z" fill="white"/>
</mask>
<g mask="url(#mask3_4313_1465)">
<path d="M61.007 -7.10038L45.2581 8.92586L61.2816 24.6721L77.0305 8.64587L61.007 -7.10038Z" fill="white"/>
</g>
<path d="M75.7643 0.782455H70.8036V16.8009H75.7643V0.782455Z" fill="white"/>
<mask id="mask4_4313_1465" style="mask-type:luminance" maskUnits="userSpaceOnUse" x="70" y="0" width="6" height="17">
<path d="M75.7652 0.782455H70.8046V16.8009H75.7652V0.782455Z" fill="white"/>
</mask>
<g mask="url(#mask4_4313_1465)">
<path d="M73.2384 -1.70343L62.7933 8.92555L73.3252 19.2752L83.7703 8.6462L73.2384 -1.70343Z" fill="white"/>
</g>
<path d="M30.3327 17.825L28.2269 10.8774L26.1152 17.825H30.3327Z" fill="#C78233"/>
<path d="M94.999 17.6141H0V19.3623H94.999V17.6141Z" fill="#C78233"/>
</svg>
