<svg width="550" height="84" viewBox="0 0 550 84" fill="none" xmlns="http://www.w3.org/2000/svg">
<mask id="path-1-inside-1_4313_1462" fill="white">
<path d="M0 0H550V84H0V0Z"/>
</mask>
<path d="M0 0H550V84H0V0Z" fill="#046332"/>
<path d="M550 82H0V86H550V82Z" fill="#F3A54B" mask="url(#path-1-inside-1_4313_1462)"/>
<g clip-path="url(#clip0_4313_1462)">
<path d="M114.592 38.299L112.91 40.7415L116.559 45.6303H120L114.592 38.299Z" fill="#C78233"/>
<path d="M111.628 42.6028L113.754 45.6302H116.559L112.91 40.7414L111.628 42.6028Z" fill="#F3A54B"/>
<path d="M119.968 29.6377H117.012L113.03 35.2764L114.513 37.4081L119.968 29.6377Z" fill="#C78233"/>
<path d="M114.3 29.6377L111.628 33.2606L113.03 35.2764L117.012 29.6377H114.3Z" fill="#F3A54B"/>
<path d="M108.037 38.1724L102.302 45.9467H105.372L111.151 38.1724H108.037Z" fill="#F3A54B"/>
<path d="M111.151 38.1724L105.372 45.9467H108.548L111.151 42.2403L114.007 38.1724H111.151Z" fill="#C78233"/>
<path d="M108.037 37.7189L102.302 29.9446H105.372L111.151 37.7189H108.037Z" fill="#F3A54B"/>
<path d="M111.151 37.7189L105.372 29.9446H108.548L111.151 33.651L114.007 37.7189H111.151Z" fill="#C78233"/>
<path d="M36.5123 29.7834L34.0199 39.5292L31.5094 29.7834H25V45.8008H29.0535V33.5856L32.172 45.8008H35.841L38.9634 33.5856V45.8008H43.0178V29.7834H36.5123Z" fill="white"/>
<mask id="mask0_4313_1462" style="mask-type:luminance" maskUnits="userSpaceOnUse" x="25" y="29" width="19" height="17">
<path d="M36.5123 29.7825L34.02 39.5293L31.5094 29.7825H25.001V45.8009H29.0545V33.5857L32.1721 45.8009H35.842L38.9643 33.5857V45.8009H43.0179V29.7825H36.5123Z" fill="white"/>
</mask>
<g mask="url(#mask0_4313_1462)">
<path d="M33.8529 20.7725L16.9929 37.9293L34.1669 54.8061L51.0269 37.6493L33.8529 20.7725Z" fill="white"/>
</g>
<path d="M50.5898 29.7834L44.5695 45.8008H49.6232L50.4037 43.157L51.4797 39.6942L53.2288 33.9357L54.9972 39.6942L56.0232 43.157L56.8249 45.8008H62.009L55.9887 29.7834H50.5898Z" fill="white"/>
<mask id="mask1_4313_1462" style="mask-type:luminance" maskUnits="userSpaceOnUse" x="44" y="29" width="19" height="17">
<path d="M50.5908 29.7825L44.5704 45.8009H49.6241L50.4047 43.157L51.4797 39.6933L53.2289 33.9347L54.9972 39.6933L56.0242 43.157L56.8259 45.8009H62.0091L55.9897 29.7825H50.5908Z" fill="white"/>
</mask>
<g mask="url(#mask1_4313_1462)">
<path d="M53.1371 21.0612L36.5621 37.9281L53.4413 54.5152L70.0163 37.6483L53.1371 21.0612Z" fill="white"/>
</g>
<path d="M60.9158 29.7834V33.7391H65.9637V45.8008H70.9138V33.7391H75.9608V29.7834H60.9158Z" fill="white"/>
<mask id="mask2_4313_1462" style="mask-type:luminance" maskUnits="userSpaceOnUse" x="60" y="29" width="16" height="17">
<path d="M60.9158 29.7825V33.7381H65.9637V45.8009H70.9139V33.7381H75.9618V29.7825H60.9158Z" fill="white"/>
</mask>
<g mask="url(#mask2_4313_1462)">
<path d="M68.3062 22.257L52.9067 37.9276L68.5691 53.3189L83.9686 37.6484L68.3062 22.257Z" fill="white"/>
</g>
<path d="M83.2394 33.0171H85.4134C86.3167 33.0171 86.9323 33.1555 87.2603 33.4323C87.5873 33.7094 87.7522 34.1036 87.7522 34.6233C87.7569 34.9596 87.6466 35.2874 87.4396 35.5525C87.2446 35.8143 86.9586 35.9936 86.6379 36.055C85.989 36.2008 85.5518 36.2734 85.3261 36.2727H83.2394V33.0171ZM78.2672 29.7825V45.7971H83.2394V39.3001H83.6757C84.1092 39.2944 84.5336 39.4242 84.8898 39.6713C85.1519 39.863 85.4501 40.2748 85.7845 40.9064L88.4312 45.7971H94.0238L91.6264 41.1557C91.4281 40.8023 91.1959 40.4689 90.9331 40.1603C90.5869 39.7298 90.3242 39.4497 90.142 39.3184C89.8728 39.1221 89.4432 38.9252 88.8531 38.7276C89.5896 38.5601 90.1691 38.3489 90.5917 38.0938C91.2367 37.7114 91.7745 37.1721 92.1548 36.5259C92.5339 35.8815 92.7235 35.1143 92.7235 34.2244C92.7235 33.2015 92.4757 32.3362 91.9803 31.6285C91.5098 30.9373 90.8209 30.424 90.024 30.1709C89.2159 29.9081 88.047 29.7767 86.5171 29.7767L78.2672 29.7825Z" fill="white"/>
<mask id="mask3_4313_1462" style="mask-type:luminance" maskUnits="userSpaceOnUse" x="78" y="29" width="17" height="17">
<path d="M83.2394 33.0171H85.4134C86.3167 33.0171 86.9323 33.1555 87.2603 33.4323C87.5873 33.7094 87.7522 34.1036 87.7522 34.6233C87.7569 34.9596 87.6466 35.2874 87.4396 35.5525C87.2446 35.8143 86.9586 35.9936 86.6379 36.055C85.989 36.2008 85.5518 36.2734 85.3261 36.2727H83.2394V33.0171ZM78.2672 29.7825V45.7971H83.2394V39.3001H83.6757C84.1092 39.2944 84.5336 39.4242 84.8898 39.6713C85.1519 39.863 85.4501 40.2748 85.7845 40.9064L88.4312 45.7971H94.0238L91.6264 41.1557C91.4281 40.8023 91.1959 40.4689 90.9331 40.1603C90.5869 39.7298 90.3242 39.4497 90.142 39.3184C89.8728 39.1221 89.4432 38.9252 88.8531 38.7276C89.5896 38.5601 90.1691 38.3489 90.5917 38.0938C91.2367 37.7114 91.7745 37.1721 92.1548 36.5259C92.5339 35.8815 92.7235 35.1143 92.7235 34.2244C92.7235 33.2015 92.4757 32.3362 91.9803 31.6285C91.5098 30.9373 90.8209 30.424 90.024 30.1709C89.2159 29.9081 88.047 29.7767 86.5171 29.7767L78.2672 29.7825Z" fill="white"/>
</mask>
<g mask="url(#mask3_4313_1462)">
<path d="M86.007 21.8996L70.2581 37.9259L86.2816 53.6721L102.031 37.6459L86.007 21.8996Z" fill="white"/>
</g>
<path d="M100.764 29.7825H95.8036V45.8009H100.764V29.7825Z" fill="white"/>
<mask id="mask4_4313_1462" style="mask-type:luminance" maskUnits="userSpaceOnUse" x="95" y="29" width="6" height="17">
<path d="M100.765 29.7825H95.8046V45.8009H100.765V29.7825Z" fill="white"/>
</mask>
<g mask="url(#mask4_4313_1462)">
<path d="M98.2384 27.2966L87.7933 37.9256L98.3252 48.2752L108.77 37.6462L98.2384 27.2966Z" fill="white"/>
</g>
<path d="M55.3327 46.825L53.2269 39.8774L51.1152 46.825H55.3327Z" fill="#C78233"/>
<path d="M119.999 46.6141H25V48.3623H119.999V46.6141Z" fill="#C78233"/>
<path d="M27.0139 54.2716H25.5796C25.5 54.2796 25.4196 54.2715 25.3432 54.2479C25.2668 54.2243 25.1958 54.1856 25.1346 54.1341C25.0358 54.0086 24.9886 53.8501 25.0026 53.691V50.1602C24.9879 49.9993 25.0366 49.839 25.1382 49.7134C25.2617 49.6117 25.4203 49.563 25.5796 49.5778H27.099C27.2945 49.5759 27.4899 49.5898 27.6832 49.6194C27.8391 49.6441 27.9888 49.6981 28.1245 49.7786C28.2363 49.8451 28.336 49.9301 28.4194 50.03C28.5044 50.13 28.5706 50.2446 28.6147 50.3682C28.6608 50.4927 28.684 50.6244 28.6835 50.7571C28.6864 50.9807 28.6202 51.1997 28.494 51.3843C28.3677 51.5688 28.1875 51.7099 27.978 51.7881C28.5942 51.9859 28.9029 52.3681 28.9041 52.9349C28.9069 53.1859 28.8365 53.4323 28.7016 53.6439C28.5719 53.8507 28.3827 54.0133 28.1589 54.1106C28.0007 54.1742 27.8346 54.2162 27.6651 54.2354C27.4497 54.2619 27.2328 54.274 27.0158 54.2716M25.9558 50.2923V51.5078H26.8258C27.0093 51.5146 27.1926 51.4914 27.3685 51.439C27.4971 51.3965 27.6037 51.3048 27.6651 51.184C27.7186 51.0931 27.7461 50.9892 27.7447 50.8837C27.7559 50.7883 27.7377 50.6918 27.6924 50.6071C27.6472 50.5223 27.577 50.4535 27.4915 50.4098C27.2444 50.3195 26.9818 50.2795 26.7191 50.2923H25.9558ZM26.9452 52.1915H25.9558V53.5607H26.976C27.6199 53.5607 27.9419 53.3286 27.9419 52.8644C27.9499 52.7641 27.9308 52.6634 27.8866 52.573C27.8423 52.4827 27.7746 52.4058 27.6904 52.3507C27.4616 52.2295 27.2036 52.1744 26.9452 52.1915Z" fill="white"/>
<path d="M32.4802 53.7417L32.2559 53.152H30.3476L30.1288 53.7543C30.0754 53.9221 30 54.0821 29.9045 54.23C29.8673 54.2733 29.8204 54.3072 29.7675 54.3289C29.7147 54.3506 29.6575 54.3595 29.6006 54.3548C29.5417 54.3551 29.4834 54.3435 29.429 54.3208C29.3746 54.2982 29.3254 54.2648 29.2841 54.2228C29.2414 54.1856 29.2071 54.1397 29.1834 54.0883C29.1597 54.0368 29.1472 53.981 29.1466 53.9244C29.1475 53.8569 29.1579 53.79 29.1774 53.7254C29.1991 53.6585 29.2334 53.5608 29.2841 53.4414L30.4851 50.3918L30.6081 50.0771C30.6483 49.9694 30.6998 49.8663 30.7619 49.7696C30.8162 49.6875 30.8902 49.6204 30.9771 49.5742C31.0772 49.5191 31.1903 49.4923 31.3045 49.4964C31.4102 49.4929 31.5151 49.5157 31.6098 49.5627C31.7045 49.6098 31.7861 49.6796 31.8471 49.7659C31.9007 49.8465 31.9468 49.9319 31.9846 50.021C32.0208 50.1114 32.0696 50.2326 32.1257 50.3827L33.3521 53.4125C33.4295 53.5703 33.4785 53.7405 33.4968 53.9153C33.4957 53.9719 33.4831 54.0278 33.4598 54.0794C33.4365 54.131 33.4029 54.1773 33.3611 54.2156C33.3201 54.2627 33.2693 54.3002 33.2122 54.3256C33.1551 54.3509 33.0932 54.3634 33.0307 54.3622C32.9683 54.361 32.9069 54.3461 32.8508 54.3186C32.7948 54.2911 32.7454 54.2516 32.7063 54.2029C32.6584 54.1376 32.6189 54.0665 32.5887 53.9913C32.5471 53.8972 32.511 53.8104 32.482 53.7399M30.5973 52.4375H32.0009L31.2936 50.4967L30.5973 52.4375Z" fill="white"/>
<path d="M35.4356 50.068L37.2643 52.8355V50.0409C37.2543 49.8959 37.2952 49.7519 37.38 49.6339C37.4193 49.5891 37.4682 49.5537 37.5229 49.5302C37.5777 49.5068 37.637 49.4958 37.6966 49.4982C37.7572 49.4955 37.8177 49.5063 37.8737 49.5297C37.9297 49.5532 37.9798 49.5888 38.0203 49.6339C38.1074 49.7509 38.1491 49.8955 38.1379 50.0409V53.7363C38.1379 54.1469 37.9679 54.3549 37.626 54.3549C37.548 54.3558 37.4703 54.3435 37.3963 54.3187C37.3247 54.2918 37.259 54.2512 37.2028 54.1993C37.1405 54.1456 37.0847 54.0849 37.0364 54.0184L36.8826 53.7996L35.0991 51.0647V53.8032C35.11 53.9497 35.0655 54.0949 34.9743 54.2102C34.9339 54.2552 34.8842 54.291 34.8286 54.315C34.773 54.3391 34.7129 54.3508 34.6524 54.3494C34.5915 54.3519 34.5309 54.3404 34.4751 54.316C34.4193 54.2916 34.3699 54.2547 34.3304 54.2083C34.2418 54.0927 34.1986 53.9485 34.2092 53.8032V50.1856C34.2039 50.0629 34.2211 49.9403 34.2599 49.8238C34.3031 49.7252 34.3766 49.6429 34.4697 49.5887C34.5597 49.529 34.6655 49.4975 34.7736 49.4982C34.8491 49.496 34.9242 49.5096 34.9942 49.538C35.0545 49.5657 35.1091 49.6043 35.1552 49.652C35.2079 49.7072 35.2546 49.7678 35.2945 49.8329C35.3433 49.907 35.394 49.9848 35.4446 50.0662" fill="white"/>
<path d="M43.1809 52.7902C43.1766 52.9575 43.1391 53.1223 43.0706 53.275C42.9869 53.4653 42.8692 53.6387 42.7233 53.7869C42.5519 53.9642 42.3456 54.104 42.1174 54.1975C41.8443 54.3066 41.5522 54.3601 41.2582 54.3548C41.0312 54.3574 40.8048 54.3331 40.5835 54.2825C40.3883 54.2394 40.2014 54.1648 40.03 54.0618C39.8574 53.9579 39.7033 53.8258 39.5742 53.6711C39.4475 53.5207 39.3405 53.3548 39.2559 53.1773C39.1676 52.9904 39.1021 52.7937 39.0605 52.5913C39.0144 52.3742 38.992 52.1529 38.9936 51.9311C38.9887 51.5858 39.0445 51.2423 39.1582 50.9163C39.2621 50.6314 39.4227 50.3705 39.6303 50.1494C39.8341 49.938 40.0808 49.7727 40.3538 49.6646C40.6337 49.5518 40.9329 49.4947 41.2347 49.4964C41.5868 49.4911 41.9351 49.5692 42.2512 49.7243C42.521 49.8543 42.755 50.048 42.9331 50.2887C43.0761 50.4692 43.1589 50.6899 43.1701 50.9199C43.171 51.0273 43.1293 51.1307 43.0543 51.2075C43.0198 51.2474 42.977 51.2792 42.9289 51.3008C42.8807 51.3223 42.8285 51.3331 42.7758 51.3323C42.6771 51.3407 42.5791 51.3102 42.5026 51.2473C42.4201 51.1578 42.3512 51.0567 42.2982 50.9471C42.1964 50.7407 42.0462 50.562 41.8605 50.4261C41.6777 50.304 41.4618 50.2408 41.2419 50.2453C41.0619 50.2396 40.8831 50.277 40.7204 50.3544C40.5577 50.4318 40.4159 50.5469 40.3068 50.6902C40.0752 50.9887 39.9595 51.4137 39.9595 51.9564C39.9514 52.2651 40.0043 52.5724 40.115 52.8608C40.1998 53.0824 40.3516 53.272 40.5491 53.4034C40.7472 53.5261 40.9764 53.5889 41.2093 53.5843C41.4567 53.5917 41.7 53.5201 41.9039 53.3799C42.1039 53.2285 42.2529 53.0196 42.3308 52.7812C42.3645 52.6732 42.4152 52.5712 42.4809 52.4791C42.5161 52.4381 42.5605 52.406 42.6105 52.3856C42.6605 52.3651 42.7147 52.3569 42.7685 52.3615C42.8231 52.3606 42.8772 52.3708 42.9276 52.3917C42.978 52.4125 43.0236 52.4435 43.0616 52.4827C43.1011 52.5204 43.1323 52.5659 43.1532 52.6164C43.1741 52.6669 43.1841 52.7212 43.1827 52.7758" fill="white"/>
<path d="M47.0408 53.7417L46.8165 53.152H44.9064L44.6821 53.7543C44.6287 53.9221 44.5533 54.0821 44.4578 54.23C44.4206 54.2733 44.3737 54.3072 44.3209 54.3289C44.2681 54.3506 44.2109 54.3595 44.154 54.3548C44.0951 54.3551 44.0367 54.3435 43.9823 54.3208C43.928 54.2982 43.8787 54.2648 43.8374 54.2228C43.7948 54.1856 43.7605 54.1397 43.7368 54.0883C43.7131 54.0368 43.7005 53.981 43.7 53.9244C43.7009 53.8569 43.7112 53.79 43.7307 53.7254C43.7524 53.6585 43.7886 53.5608 43.8374 53.4414L45.0385 50.3918L45.1615 50.0771C45.2016 49.9694 45.2532 49.8663 45.3152 49.7696C45.37 49.6879 45.4439 49.6209 45.5305 49.5742C45.6305 49.5191 45.7437 49.4923 45.8578 49.4964C45.9635 49.4929 46.0685 49.5157 46.1632 49.5627C46.2579 49.6098 46.3394 49.6796 46.4005 49.7659C46.4541 49.8465 46.5001 49.9319 46.538 50.021C46.5741 50.1114 46.623 50.2326 46.679 50.3827L47.9072 53.4125C47.9835 53.5706 48.0318 53.7407 48.0501 53.9153C48.049 53.9719 48.0364 54.0278 48.0131 54.0794C47.9898 54.131 47.9562 54.1773 47.9144 54.2156C47.8722 54.2601 47.821 54.2954 47.7644 54.3191C47.7077 54.3427 47.6467 54.3543 47.5852 54.353C47.5192 54.3541 47.4537 54.3405 47.3935 54.3132C47.342 54.2857 47.2965 54.2482 47.2597 54.2029C47.2124 54.1371 47.173 54.0661 47.1421 53.9913C47.1005 53.8972 47.0661 53.8104 47.0354 53.7399M45.1506 52.4375H46.5542L45.847 50.4967L45.1506 52.4375Z" fill="white"/>
<path d="M53.4893 50.3122H51.3459V51.4626H53.3192C53.4363 51.4548 53.5521 51.4902 53.6448 51.5621C53.6803 51.5945 53.7082 51.6343 53.7266 51.6787C53.7451 51.7231 53.7536 51.771 53.7515 51.819C53.7536 51.8676 53.7454 51.9162 53.7273 51.9614C53.7092 52.0066 53.6817 52.0474 53.6466 52.0812C53.5546 52.1558 53.4373 52.1921 53.3192 52.1825H51.3459V53.5174H53.5634C53.6849 53.5076 53.8055 53.5452 53.8999 53.6223C53.9382 53.6571 53.9683 53.7 53.988 53.7479C54.0077 53.7957 54.0165 53.8474 54.0138 53.8991C54.016 53.9499 54.0069 54.0006 53.9872 54.0475C53.9675 54.0944 53.9377 54.1364 53.8999 54.1704C53.8049 54.2462 53.6846 54.283 53.5634 54.2735H50.9787C50.8988 54.2887 50.8164 54.2842 50.7387 54.2604C50.6609 54.2365 50.5902 54.1941 50.5326 54.1367C50.4751 54.0793 50.4324 54.0087 50.4083 53.931C50.3842 53.8533 50.3794 53.771 50.3944 53.6911V50.1603C50.3896 50.0461 50.4107 49.9324 50.4559 49.8275C50.4954 49.7463 50.5628 49.682 50.6458 49.6466C50.7513 49.6032 50.8647 49.5828 50.9787 49.5869H53.4893C53.6107 49.5775 53.7313 49.6136 53.8275 49.6882C53.8626 49.7229 53.8904 49.7641 53.9094 49.8096C53.9284 49.8551 53.9382 49.9039 53.9382 49.9532C53.9382 50.0025 53.9284 50.0513 53.9094 50.0968C53.8904 50.1423 53.8626 50.1835 53.8275 50.2182C53.7315 50.2934 53.6109 50.3302 53.4893 50.3213" fill="white"/>
<path d="M55.7033 50.0752V53.492H57.6315C57.762 53.4812 57.8917 53.5214 57.9932 53.6042C58.0332 53.6393 58.065 53.6827 58.0863 53.7315C58.1075 53.7803 58.1178 53.8331 58.1162 53.8863C58.1161 53.9396 58.1042 53.9922 58.0814 54.0404C58.0585 54.0885 58.0254 54.131 57.9842 54.1649C57.8808 54.2436 57.752 54.2816 57.6224 54.2716H55.3253C55.2454 54.2792 55.1649 54.271 55.0882 54.2474C55.0115 54.2238 54.9403 54.1853 54.8785 54.1341C54.7771 54.0091 54.7284 53.8495 54.7428 53.6892V50.0716C54.7304 49.9162 54.7769 49.7619 54.8731 49.6393C54.9154 49.5913 54.9679 49.5534 55.0267 49.5284C55.0855 49.5034 55.1492 49.4918 55.2131 49.4946C55.2777 49.4921 55.3421 49.5034 55.4019 49.5278C55.4618 49.5521 55.5158 49.5889 55.5604 49.6357C55.6586 49.7588 55.7064 49.9146 55.6943 50.0716" fill="white"/>
<path d="M61.8279 50.3122H59.6845V51.4626H61.6579C61.7749 51.4552 61.8906 51.4905 61.9835 51.5621C62.0185 51.5948 62.0462 51.6347 62.0646 51.679C62.083 51.7233 62.0917 51.771 62.0902 51.819C62.0918 51.8676 62.0834 51.916 62.0653 51.9611C62.0472 52.0063 62.02 52.0472 61.9853 52.0812C61.8931 52.1556 61.776 52.1919 61.6579 52.1825H59.6845V53.5174H61.9021C62.0235 53.5082 62.1438 53.5457 62.2385 53.6223C62.2762 53.6576 62.3058 53.7006 62.3255 53.7484C62.3451 53.7961 62.3543 53.8475 62.3525 53.8991C62.3542 53.9498 62.345 54.0004 62.3253 54.0472C62.3056 54.0941 62.276 54.1361 62.2385 54.1704C62.1432 54.2455 62.0232 54.2823 61.9021 54.2735H59.3155C59.2356 54.2811 59.1551 54.2729 59.0784 54.2493C59.0017 54.2257 58.9305 54.1872 58.8687 54.136C58.7673 54.011 58.7187 53.8514 58.7331 53.6911V50.1603C58.7292 50.0462 58.7502 49.9326 58.7946 49.8275C58.8318 49.7478 58.8958 49.6838 58.9754 49.6466C59.0803 49.6033 59.1931 49.583 59.3065 49.5869H61.8189C61.9398 49.5772 62.0599 49.6134 62.1553 49.6882C62.1917 49.722 62.2208 49.7631 62.2407 49.8086C62.2605 49.8542 62.2708 49.9034 62.2708 49.9532C62.2708 50.0029 62.2605 50.0521 62.2407 50.0977C62.2208 50.1433 62.1917 50.1843 62.1553 50.2182C62.0601 50.2936 61.94 50.3304 61.8189 50.3213" fill="white"/>
<path d="M67.1094 52.7903C67.1059 52.9576 67.0683 53.1226 66.9991 53.275C66.916 53.4657 66.7983 53.6392 66.6518 53.7869C66.4807 53.9646 66.2743 54.1045 66.0458 54.1975C65.7734 54.3065 65.4819 54.36 65.1885 54.3549C64.9609 54.3574 64.7338 54.3331 64.512 54.2825C64.3205 54.2385 64.1372 54.164 63.9693 54.0618C63.7961 53.9581 63.6414 53.826 63.5117 53.6711C63.3856 53.5207 63.2792 53.3547 63.1952 53.1773C63.1056 52.9908 63.0393 52.794 62.998 52.5913C62.9534 52.3741 62.9316 52.1528 62.9329 51.9311C62.9272 51.5857 62.9829 51.2421 63.0975 50.9163C63.2 50.6307 63.3608 50.3696 63.5696 50.1494C63.7729 49.9375 64.0198 49.7721 64.2931 49.6646C64.5736 49.5516 64.8734 49.4945 65.1758 49.4964C65.5273 49.4909 65.8751 49.569 66.1905 49.7243C66.4606 49.8538 66.6948 50.0476 66.8725 50.2887C67.0154 50.4692 67.0982 50.69 67.1094 50.92C67.1103 51.0273 67.0687 51.1307 66.9936 51.2076C66.9591 51.2474 66.9163 51.2792 66.8682 51.3008C66.8201 51.3223 66.7678 51.3331 66.7151 51.3324C66.6165 51.3403 66.5186 51.3098 66.442 51.2473C66.3595 51.1582 66.2912 51.0569 66.2394 50.9471C66.1364 50.7415 65.9864 50.563 65.8016 50.4262C65.618 50.3043 65.4016 50.2412 65.1812 50.2453C65.0014 50.2396 64.8229 50.277 64.6605 50.3544C64.4981 50.4318 64.3567 50.547 64.2479 50.6902C64.0164 50.9887 63.9006 51.4137 63.9006 51.9564C63.892 52.265 63.9442 52.5723 64.0544 52.8608C64.1392 53.0829 64.2917 53.2727 64.4903 53.4034C64.6876 53.5261 64.9163 53.589 65.1487 53.5843C65.396 53.5917 65.6393 53.5201 65.8433 53.3799C66.0433 53.2285 66.1922 53.0196 66.2701 52.7812C66.3039 52.6732 66.3545 52.5712 66.4203 52.4791C66.4559 52.4382 66.5006 52.4062 66.5509 52.3858C66.6012 52.3653 66.6556 52.3571 66.7097 52.3616C66.7639 52.3609 66.8177 52.3712 66.8678 52.3921C66.9179 52.4129 66.9632 52.4438 67.0009 52.4828C67.0404 52.5204 67.0717 52.5659 67.0925 52.6164C67.1134 52.6669 67.1235 52.7212 67.1221 52.7758" fill="white"/>
<path d="M71.0075 50.3665H69.9765V53.776C69.9898 53.9334 69.9426 54.09 69.8444 54.2138C69.8023 54.2615 69.7501 54.2992 69.6916 54.3242C69.6331 54.3493 69.5698 54.361 69.5062 54.3585C69.4418 54.3608 69.3777 54.349 69.3184 54.324C69.259 54.299 69.2058 54.2614 69.1625 54.2138C69.0636 54.0903 69.0157 53.9337 69.0287 53.776V50.3665H67.9904C67.8605 50.3768 67.7314 50.3381 67.6286 50.2579C67.5902 50.2211 67.5596 50.1769 67.5387 50.1279C67.5177 50.079 67.507 50.0263 67.507 49.973C67.507 49.9198 67.5177 49.8671 67.5387 49.8182C67.5596 49.7692 67.5902 49.725 67.6286 49.6882C67.7321 49.6094 67.8608 49.5714 67.9904 49.5814H71.0075C71.1372 49.5731 71.2655 49.6116 71.3692 49.69C71.409 49.7258 71.4404 49.77 71.4611 49.8194C71.4817 49.8689 71.4911 49.9223 71.4886 49.9758C71.4903 50.0288 71.4804 50.0816 71.4594 50.1303C71.4385 50.1791 71.4071 50.2227 71.3674 50.2579C71.2637 50.3363 71.1354 50.3748 71.0057 50.3665" fill="white"/>
<path d="M73.3443 52.2656H73.0115V53.7742C73.0242 53.9321 72.977 54.0889 72.8794 54.2137C72.8355 54.2603 72.7821 54.297 72.7228 54.3213C72.6636 54.3457 72.5998 54.3571 72.5358 54.3548C72.4696 54.3585 72.4034 54.3471 72.3423 54.3214C72.2811 54.2957 72.2267 54.2564 72.183 54.2065C72.0923 54.0814 72.0481 53.9284 72.0582 53.7742V50.1566C72.0432 50.0767 72.048 49.9943 72.0721 49.9166C72.0962 49.839 72.1389 49.7684 72.1965 49.711C72.254 49.6536 72.3248 49.6111 72.4025 49.5872C72.4802 49.5634 72.5626 49.5589 72.6425 49.5741H74.189C74.3703 49.5719 74.5515 49.5809 74.7316 49.6013C74.8734 49.6165 75.0119 49.6537 75.1422 49.7116C75.2889 49.7732 75.4218 49.8636 75.5329 49.9775C75.6451 50.0928 75.733 50.2293 75.7916 50.3791C75.8499 50.534 75.8793 50.6983 75.8784 50.8638C75.8944 51.1723 75.7878 51.4747 75.5818 51.7049C75.3325 51.9413 75.017 52.0959 74.6774 52.1481C74.8605 52.2513 75.024 52.386 75.1603 52.546C75.3133 52.7206 75.4507 52.9082 75.5709 53.1067C75.6791 53.2799 75.7734 53.4614 75.8531 53.6494C75.9042 53.753 75.9384 53.8641 75.9544 53.9786C75.9526 54.0434 75.9319 54.1063 75.8947 54.1594C75.8547 54.221 75.7992 54.271 75.7337 54.3041C75.6604 54.3413 75.579 54.36 75.4968 54.3584C75.4009 54.362 75.3065 54.3347 75.2272 54.2806C75.1565 54.2318 75.0952 54.1705 75.0464 54.0997C74.9939 54.022 74.9216 53.9098 74.8329 53.7579L74.4513 53.1266C74.3478 52.9349 74.2267 52.7532 74.0895 52.584C74.0003 52.4771 73.8877 52.3923 73.7603 52.3362C73.6266 52.2873 73.4848 52.2646 73.3425 52.2692M73.8851 50.294H73.0079V51.5855H73.858C74.052 51.5899 74.2458 51.5704 74.435 51.5276C74.5736 51.499 74.6999 51.4282 74.7968 51.3251C74.8838 51.2134 74.9275 51.0739 74.9198 50.9325C74.9228 50.8112 74.8885 50.6919 74.8215 50.5906C74.7546 50.4894 74.6582 50.4111 74.5453 50.3664C74.3321 50.3056 74.1101 50.2811 73.8887 50.294" fill="white"/>
<path d="M78.8505 49.4982C79.2869 49.4858 79.7189 49.5874 80.104 49.7931C80.4486 49.9863 80.7257 50.2805 80.898 50.6359C81.0848 51.0371 81.1764 51.476 81.1658 51.9184C81.1698 52.2545 81.1203 52.5891 81.0192 52.9096C80.9278 53.1949 80.7767 53.4576 80.5761 53.6802C80.3775 53.9015 80.1296 54.0731 79.8526 54.1812C79.217 54.4164 78.5183 54.4164 77.8828 54.1812C77.6069 54.0709 77.3595 53.8996 77.1593 53.6802C76.9598 53.4543 76.8095 53.1895 76.7179 52.9024C76.6173 52.5835 76.5672 52.2509 76.5696 51.9166C76.5663 51.5798 76.6189 51.2449 76.7252 50.9254C76.8192 50.6401 76.9727 50.3781 77.1756 50.1566C77.3766 49.9419 77.6241 49.7761 77.8991 49.6719C78.2053 49.5541 78.5315 49.497 78.8595 49.5036M80.2107 51.9166C80.2173 51.611 80.1607 51.3074 80.0443 51.0248C79.9475 50.7899 79.7816 50.5899 79.5686 50.4514C79.3555 50.3207 79.1095 50.2535 78.8595 50.2579C78.6784 50.2568 78.4991 50.2938 78.3332 50.3664C78.1719 50.4368 78.029 50.5433 77.9153 50.6775C77.7897 50.8324 77.6963 51.0107 77.6404 51.2021C77.5703 51.4337 77.5362 51.6746 77.5391 51.9166C77.5362 52.1615 77.5704 52.4054 77.6404 52.6401C77.6972 52.8384 77.7938 53.023 77.9244 53.1827C78.0406 53.3184 78.1851 53.427 78.3476 53.5011C78.539 53.5827 78.7468 53.6184 78.9545 53.6052C79.1621 53.592 79.3638 53.5303 79.5433 53.4251C79.7584 53.2901 79.9279 53.0934 80.0298 52.8608C80.1594 52.5646 80.2212 52.2433 80.2107 51.9202M79.234 48.3623H79.6663C79.7748 48.3623 79.8309 48.3786 79.8309 48.4093C79.8309 48.4401 79.7694 48.498 79.65 48.6191C79.5306 48.7403 79.4112 48.8561 79.2882 48.9682C79.2117 49.045 79.1267 49.113 79.035 49.1708C78.914 49.2323 78.78 49.2639 78.6443 49.2631C78.5539 49.2631 78.5068 49.2359 78.5068 49.1835C78.5207 49.1177 78.5491 49.0559 78.59 49.0026L78.7347 48.7349C78.7848 48.621 78.8588 48.5192 78.9518 48.4365C79.0374 48.3874 79.1355 48.3648 79.234 48.3713" fill="white"/>
<path d="M83.2185 50.068L85.049 52.8355V50.0409C85.0381 49.8958 85.0791 49.7516 85.1648 49.6339C85.2061 49.591 85.2557 49.5568 85.3106 49.5335C85.3654 49.5102 85.4244 49.4981 85.484 49.4981C85.5436 49.4981 85.6026 49.5102 85.6575 49.5335C85.7124 49.5568 85.7619 49.591 85.8033 49.6339C85.8916 49.7505 85.9347 49.8951 85.9245 50.0409V53.7363C85.9245 54.1469 85.7436 54.3549 85.4108 54.3549C85.3322 54.3555 85.254 54.3433 85.1793 54.3187C85.1084 54.2913 85.0434 54.2508 84.9875 54.1993C84.9252 54.1457 84.8694 54.085 84.8211 54.0184C84.7705 53.9479 84.718 53.8755 84.6674 53.7996L82.8839 51.0647V53.8032C82.8939 53.9496 82.8494 54.0945 82.7591 54.2102C82.7186 54.2552 82.6689 54.291 82.6134 54.3151C82.5578 54.3391 82.4977 54.3508 82.4371 54.3495C82.3761 54.3515 82.3153 54.3399 82.2593 54.3155C82.2033 54.2911 82.1534 54.2545 82.1133 54.2084C82.0256 54.0922 81.9826 53.9484 81.9922 53.8032V50.1856C81.9873 50.0628 82.0051 49.9402 82.0446 49.8238C82.0858 49.7262 82.1559 49.6435 82.2454 49.5869C82.3227 49.538 82.4105 49.5079 82.5016 49.4991C82.5927 49.4903 82.6846 49.503 82.7699 49.5362C82.8297 49.5639 82.8837 49.6026 82.9291 49.6502C82.9829 49.7049 83.0302 49.7656 83.0702 49.8311C83.119 49.9052 83.1679 49.983 83.2185 50.0644" fill="white"/>
<path d="M87.0026 53.7742V50.0752C86.99 49.9196 87.0372 49.7649 87.1347 49.6429C87.1767 49.595 87.2288 49.5569 87.2873 49.5316C87.3458 49.5063 87.4092 49.4942 87.4729 49.4964C87.5394 49.4929 87.6059 49.5043 87.6675 49.5296C87.7292 49.555 87.7844 49.5937 87.8292 49.6429C87.9274 49.766 87.9752 49.9218 87.9631 50.0788V53.7778C87.9749 53.9348 87.9271 54.0904 87.8292 54.2137C87.7857 54.2621 87.7319 54.3001 87.6719 54.3251C87.6118 54.3501 87.5469 54.3615 87.482 54.3584C87.4186 54.3602 87.3556 54.348 87.2974 54.3226C87.2393 54.2973 87.1874 54.2595 87.1455 54.2119C87.0481 54.0891 87.0003 53.9342 87.0117 53.7778" fill="white"/>
<path d="M93.0187 52.7902C93.0144 52.9575 92.9768 53.1223 92.9084 53.275C92.8247 53.4653 92.707 53.6387 92.5611 53.7869C92.3897 53.9642 92.1834 54.104 91.9552 54.1975C91.6821 54.3066 91.39 54.3601 91.096 54.3548C90.869 54.3574 90.6426 54.3331 90.4213 54.2825C90.2262 54.239 90.0393 54.1645 89.8678 54.0618C89.6954 53.9575 89.5414 53.8255 89.412 53.6711C89.2853 53.5207 89.1783 53.3548 89.0936 53.1773C89.0054 52.9904 88.9399 52.7937 88.8983 52.5913C88.8522 52.3742 88.8298 52.1529 88.8314 51.9311C88.8253 51.5856 88.8817 51.2418 88.9978 50.9163C89.0998 50.6305 89.2606 50.3692 89.4699 50.1494C89.6732 49.9374 89.92 49.7721 90.1934 49.6646C90.4733 49.5518 90.7725 49.4947 91.0743 49.4964C91.4264 49.4911 91.7747 49.5692 92.0908 49.7243C92.3606 49.8543 92.5946 50.048 92.7727 50.2887C92.9157 50.4692 92.9985 50.6899 93.0097 50.9199C93.0106 51.0273 92.9689 51.1307 92.8939 51.2075C92.8594 51.2474 92.8166 51.2792 92.7685 51.3008C92.7203 51.3223 92.6681 51.3331 92.6154 51.3323C92.5167 51.3407 92.4187 51.3102 92.3422 51.2473C92.2597 51.1578 92.1908 51.0567 92.1379 50.9471C92.036 50.7407 91.8858 50.562 91.7001 50.4261C91.5174 50.3037 91.3014 50.2406 91.0815 50.2453C90.9015 50.2399 90.7228 50.2774 90.5602 50.3548C90.3976 50.4321 90.2557 50.5471 90.1464 50.6902C89.9148 50.9887 89.7991 51.4137 89.7991 51.9564C89.7912 52.265 89.8434 52.5721 89.9528 52.8608C90.0395 53.0818 90.1916 53.2711 90.3887 53.4034C90.5868 53.5261 90.816 53.5889 91.049 53.5843C91.2963 53.5917 91.5396 53.5201 91.7435 53.3799C91.943 53.228 92.0919 53.0193 92.1704 52.7812C92.2041 52.6732 92.2548 52.5712 92.3205 52.4791C92.356 52.4379 92.4007 52.4058 92.451 52.3853C92.5014 52.3649 92.5558 52.3567 92.6099 52.3615C92.6642 52.3608 92.718 52.3712 92.7681 52.3921C92.8182 52.4129 92.8634 52.4438 92.9012 52.4827C92.9407 52.5204 92.9719 52.5659 92.9928 52.6164C93.0137 52.6669 93.0238 52.7212 93.0223 52.7758" fill="white"/>
<path d="M96.8733 53.7417L96.649 53.152H94.7461L94.5218 53.7543C94.4685 53.9221 94.393 54.0821 94.2976 54.23C94.2609 54.2741 94.2141 54.3084 94.1611 54.3302C94.1082 54.352 94.0507 54.3604 93.9937 54.3548C93.9348 54.3551 93.8764 54.3435 93.8221 54.3208C93.7677 54.2982 93.7184 54.2648 93.6771 54.2228C93.6345 54.1856 93.6002 54.1397 93.5765 54.0883C93.5528 54.0368 93.5402 53.981 93.5397 53.9244C93.5403 53.8568 93.5513 53.7897 93.5722 53.7254C93.5921 53.6585 93.6283 53.5608 93.6771 53.4414L94.8836 50.3918L95.0066 50.0771C95.0468 49.9694 95.0983 49.8663 95.1604 49.7696C95.2152 49.6879 95.2891 49.6209 95.3756 49.5742C95.4757 49.5191 95.5888 49.4923 95.703 49.4964C95.8087 49.4929 95.9136 49.5157 96.0083 49.5627C96.103 49.6098 96.1846 49.6796 96.2456 49.7659C96.2992 49.8465 96.3452 49.9319 96.3831 50.021C96.4193 50.1114 96.4681 50.2326 96.5242 50.3827L97.7505 53.4125C97.8283 53.5703 97.8779 53.7404 97.8971 53.9153C97.8955 53.972 97.8826 54.0279 97.859 54.0795C97.8353 54.1311 97.8015 54.1774 97.7596 54.2156C97.7176 54.26 97.6668 54.2952 97.6104 54.3188C97.554 54.3425 97.4933 54.3542 97.4322 54.353C97.3655 54.3543 97.2994 54.3407 97.2387 54.3132C97.1872 54.2857 97.1417 54.2482 97.1048 54.2029C97.0576 54.1371 97.0181 54.0661 96.9872 53.9913C96.9456 53.8972 96.9095 53.8104 96.8805 53.7399M94.9976 52.4375H96.3994L95.6921 50.4967L94.9976 52.4375Z" fill="white"/>
<path d="M100.822 49.5778H102.061C102.34 49.5726 102.619 49.6023 102.891 49.6664C103.124 49.728 103.339 49.8432 103.519 50.0029C104.01 50.4225 104.254 51.0586 104.253 51.9112C104.255 52.1711 104.23 52.4305 104.179 52.6853C104.135 52.9049 104.058 53.1165 103.951 53.313C103.849 53.5012 103.716 53.6707 103.557 53.814C103.434 53.926 103.295 54.0187 103.144 54.089C102.99 54.1579 102.828 54.2059 102.661 54.2318C102.469 54.2602 102.275 54.2735 102.081 54.2716H100.842C100.707 54.2797 100.572 54.2535 100.449 54.1957C100.408 54.1717 100.371 54.1397 100.342 54.1015C100.313 54.0633 100.291 54.0197 100.279 53.9732C100.25 53.8549 100.237 53.7332 100.239 53.6114V50.1747C100.225 50.095 100.229 50.0128 100.253 49.9353C100.277 49.8578 100.32 49.7874 100.377 49.73C100.435 49.6727 100.505 49.6301 100.582 49.6061C100.66 49.5821 100.742 49.5774 100.822 49.5923M101.184 50.3447V53.5318H101.907C102.066 53.5318 102.189 53.5318 102.28 53.5192C102.375 53.5085 102.468 53.4873 102.558 53.4559C102.65 53.4244 102.735 53.3753 102.808 53.3112C103.126 53.0411 103.285 52.5774 103.285 51.9202C103.308 51.5611 103.236 51.2025 103.076 50.8802C102.965 50.6732 102.78 50.5156 102.558 50.4388C102.316 50.3719 102.066 50.3402 101.815 50.3447H101.184Z" fill="white"/>
<path d="M108.184 50.3122H106.04V51.4626H108.014C108.131 51.4545 108.247 51.4899 108.339 51.5621C108.374 51.5939 108.402 51.6327 108.421 51.676C108.44 51.7194 108.45 51.7662 108.45 51.8135C108.452 51.8622 108.443 51.9107 108.425 51.9559C108.407 52.0012 108.38 52.042 108.345 52.0758C108.253 52.1504 108.135 52.1866 108.017 52.1771H106.04V53.512H108.256C108.378 53.5025 108.499 53.54 108.594 53.6169C108.633 53.6517 108.663 53.6946 108.682 53.7424C108.702 53.7903 108.711 53.842 108.708 53.8936C108.71 53.9445 108.701 53.9951 108.682 54.042C108.662 54.0889 108.632 54.1309 108.594 54.165C108.498 54.2404 108.378 54.2772 108.256 54.2681H105.671C105.591 54.2757 105.511 54.2674 105.434 54.2439C105.357 54.2203 105.286 54.1818 105.224 54.1306C105.123 54.0056 105.074 53.846 105.089 53.6856V50.1603C105.084 50.0461 105.105 49.9324 105.15 49.8275C105.187 49.7472 105.251 49.6829 105.331 49.6466C105.436 49.6033 105.549 49.583 105.662 49.5869H108.175C108.296 49.5775 108.417 49.6136 108.513 49.6882C108.582 49.7589 108.621 49.8541 108.621 49.9532C108.621 50.0523 108.582 50.1475 108.513 50.2182C108.417 50.2934 108.296 50.3302 108.175 50.3213" fill="white"/>
<path d="M115.106 52.7903C115.102 52.9576 115.065 53.1226 114.996 53.275C114.912 53.4653 114.794 53.6387 114.648 53.7869C114.477 53.9646 114.271 54.1045 114.042 54.1975C113.769 54.3069 113.477 54.3604 113.183 54.3549C112.956 54.3574 112.73 54.3331 112.508 54.2825C112.313 54.2394 112.126 54.1649 111.955 54.0618C111.782 53.9579 111.628 53.8258 111.499 53.6711C111.373 53.5207 111.267 53.3547 111.183 53.1773C111.092 52.991 111.024 52.7942 110.982 52.5913C110.936 52.3743 110.913 52.1529 110.915 51.9311C110.91 51.5856 110.966 51.242 111.081 50.9163C111.183 50.6305 111.344 50.3692 111.553 50.1494C111.757 49.9375 112.004 49.7721 112.277 49.6646C112.557 49.5518 112.856 49.4947 113.158 49.4964C113.51 49.4909 113.858 49.569 114.174 49.7243C114.444 49.8538 114.679 50.0476 114.856 50.2887C114.999 50.4692 115.082 50.69 115.093 50.92C115.094 51.0273 115.052 51.1307 114.977 51.2076C114.943 51.2474 114.9 51.2792 114.852 51.3008C114.804 51.3223 114.752 51.3331 114.699 51.3324C114.601 51.3406 114.503 51.3101 114.428 51.2473C114.344 51.1588 114.275 51.0574 114.223 50.9471C114.121 50.7411 113.971 50.5625 113.785 50.4262C113.602 50.3043 113.385 50.2412 113.165 50.2453C112.985 50.2399 112.806 50.2774 112.644 50.3548C112.481 50.4322 112.339 50.5471 112.23 50.6902C111.998 50.9887 111.883 51.4137 111.883 51.9564C111.875 52.2651 111.927 52.5725 112.038 52.8608C112.124 53.082 112.275 53.2715 112.472 53.4034C112.67 53.5261 112.9 53.5889 113.132 53.5843C113.38 53.5917 113.623 53.5201 113.827 53.3799C114.027 53.2285 114.176 53.0196 114.254 52.7812C114.288 52.6732 114.338 52.5712 114.404 52.4791C114.439 52.4382 114.484 52.4062 114.534 52.3858C114.584 52.3654 114.638 52.3571 114.692 52.3616C114.746 52.3606 114.8 52.3709 114.851 52.3917C114.901 52.4126 114.947 52.4435 114.985 52.4828C115.024 52.5204 115.055 52.5659 115.076 52.6164C115.097 52.6669 115.107 52.7212 115.106 52.7758" fill="white"/>
<path d="M118.966 53.7417L118.742 53.152H116.833L116.607 53.7543C116.554 53.9221 116.478 54.0821 116.383 54.23C116.346 54.2733 116.299 54.3072 116.246 54.3289C116.193 54.3506 116.136 54.3595 116.079 54.3548C116.02 54.3551 115.962 54.3435 115.908 54.3208C115.853 54.2982 115.804 54.2648 115.763 54.2228C115.72 54.1856 115.686 54.1397 115.662 54.0883C115.638 54.0368 115.626 53.981 115.625 53.9244C115.626 53.8569 115.636 53.79 115.656 53.7254C115.678 53.6585 115.714 53.5608 115.763 53.4414L116.964 50.3918L117.087 50.0771C117.127 49.9694 117.178 49.8663 117.24 49.7696C117.295 49.6879 117.369 49.6209 117.456 49.5742C117.556 49.5191 117.669 49.4923 117.783 49.4964C117.889 49.4929 117.994 49.5157 118.088 49.5627C118.183 49.6098 118.265 49.6796 118.326 49.7659C118.38 49.8457 118.426 49.9313 118.461 50.021C118.499 50.1114 118.548 50.2326 118.604 50.3827L119.845 53.4143C119.921 53.5727 119.97 53.7427 119.99 53.9171C119.988 53.9738 119.975 54.0297 119.952 54.0813C119.928 54.1329 119.894 54.1792 119.852 54.2174C119.81 54.2618 119.759 54.297 119.703 54.3206C119.647 54.3443 119.586 54.356 119.525 54.3548C119.458 54.3561 119.392 54.3425 119.331 54.3151C119.28 54.2875 119.234 54.25 119.197 54.2047C119.15 54.1394 119.11 54.0683 119.08 53.9931C119.038 53.899 119.002 53.8122 118.973 53.7417M117.088 52.4393H118.492L117.785 50.4985L117.088 52.4393Z" fill="white"/>
<path d="M124.517 52.7902C124.513 52.9576 124.476 53.1225 124.407 53.275C124.323 53.4653 124.205 53.6387 124.059 53.7869C123.888 53.9642 123.682 54.104 123.453 54.1975C123.181 54.3066 122.889 54.3601 122.596 54.3548C122.368 54.3574 122.141 54.3331 121.919 54.2825C121.724 54.239 121.537 54.1645 121.366 54.0618C121.194 53.9575 121.04 53.8255 120.91 53.6711C120.784 53.5207 120.678 53.3547 120.594 53.1773C120.504 52.9908 120.438 52.794 120.396 52.5913C120.351 52.3742 120.329 52.1528 120.331 51.9311C120.326 51.5857 120.381 51.2421 120.496 50.9163C120.598 50.6305 120.759 50.3692 120.968 50.1494C121.171 49.9374 121.418 49.7721 121.692 49.6646C121.972 49.5516 122.272 49.4945 122.574 49.4964C122.926 49.4911 123.274 49.5692 123.589 49.7243C123.859 49.8538 124.093 50.0475 124.271 50.2887C124.414 50.4692 124.497 50.6899 124.508 50.9199C124.509 51.0273 124.467 51.1307 124.392 51.2075C124.358 51.2471 124.315 51.2788 124.267 51.3004C124.22 51.3219 124.168 51.3328 124.115 51.3323C124.016 51.341 123.917 51.3105 123.84 51.2473C123.758 51.1582 123.69 51.0569 123.638 50.9471C123.535 50.7415 123.385 50.563 123.2 50.4261C123.016 50.3039 122.799 50.2408 122.578 50.2453C122.398 50.2398 122.22 50.2774 122.058 50.3548C121.896 50.4322 121.755 50.5472 121.646 50.6902C121.413 50.9887 121.299 51.4137 121.299 51.9564C121.291 52.2648 121.342 52.572 121.451 52.8608C121.537 53.0821 121.689 53.2716 121.887 53.4034C122.085 53.5261 122.314 53.5889 122.547 53.5843C122.794 53.5917 123.038 53.5201 123.242 53.3799C123.442 53.2285 123.591 53.0196 123.669 52.7812C123.702 52.6732 123.753 52.5712 123.819 52.4791C123.854 52.4379 123.899 52.4058 123.949 52.3853C124 52.3649 124.054 52.3567 124.108 52.3615C124.162 52.3608 124.216 52.3712 124.266 52.3921C124.316 52.4129 124.362 52.4438 124.399 52.4827C124.439 52.5204 124.47 52.5659 124.491 52.6164C124.512 52.6669 124.522 52.7212 124.52 52.7758" fill="white"/>
<path d="M127.196 52.4447H126.324V53.7742C126.335 53.9303 126.287 54.0848 126.188 54.2065C126.146 54.2549 126.094 54.2933 126.035 54.319C125.976 54.3447 125.913 54.3569 125.848 54.3548C125.784 54.3571 125.72 54.3452 125.66 54.3199C125.601 54.2946 125.548 54.2565 125.505 54.2083C125.408 54.087 125.361 53.934 125.373 53.7796V50.162C125.365 50.0815 125.374 50.0002 125.398 49.9232C125.423 49.8461 125.463 49.7747 125.516 49.7135C125.647 49.6136 125.811 49.5659 125.975 49.5796H127.196C127.476 49.5715 127.755 49.5994 128.028 49.6628C128.212 49.7119 128.382 49.8029 128.525 49.9287C128.666 50.0529 128.776 50.2084 128.846 50.3827C128.92 50.576 128.957 50.7816 128.954 50.9887C128.968 51.1913 128.935 51.3944 128.858 51.5825C128.781 51.7705 128.662 51.9386 128.511 52.0739C128.215 52.3211 127.777 52.4417 127.196 52.4357M126.964 50.2814H126.324V51.7176H126.964C127.154 51.7231 127.344 51.6993 127.527 51.6471C127.664 51.6096 127.786 51.5283 127.872 51.4155C127.956 51.2926 127.997 51.146 127.99 50.9977C127.998 50.8117 127.933 50.63 127.809 50.4912C127.672 50.352 127.391 50.2814 126.966 50.2814" fill="white"/>
<path d="M202.892 50.3122H200.749V51.4626H202.722C202.839 51.4552 202.955 51.4905 203.048 51.5621C203.083 51.5948 203.11 51.6347 203.129 51.679C203.147 51.7233 203.156 51.771 203.154 51.819C203.156 51.8676 203.148 51.9161 203.13 51.9614C203.112 52.0066 203.085 52.0474 203.049 52.0812C202.957 52.1553 202.84 52.1915 202.722 52.1825H200.749V53.5174H202.964C203.087 53.5084 203.208 53.5458 203.305 53.6223C203.342 53.6578 203.371 53.7009 203.39 53.7486C203.41 53.7963 203.419 53.8476 203.417 53.8991C203.418 53.9496 203.409 53.9999 203.389 54.0466C203.37 54.0933 203.341 54.1355 203.305 54.1704C203.208 54.2456 203.087 54.2823 202.964 54.2735H200.38C200.3 54.2811 200.219 54.2729 200.143 54.2493C200.066 54.2257 199.995 54.1872 199.933 54.136C199.832 54.011 199.783 53.8514 199.797 53.6911V50.1603C199.792 50.0461 199.814 49.9324 199.859 49.8275C199.897 49.7455 199.965 49.681 200.049 49.6466C200.154 49.6033 200.266 49.583 200.38 49.5869H202.892C203.013 49.5772 203.133 49.6134 203.229 49.6882C203.264 49.7228 203.291 49.7641 203.31 49.8096C203.329 49.8551 203.339 49.9039 203.339 49.9532C203.339 50.0025 203.329 50.0513 203.31 50.0968C203.291 50.1422 203.264 50.1835 203.229 50.2182C203.133 50.2936 203.013 50.3304 202.892 50.3213" fill="white"/>
<path d="M132.843 50.3122H130.698V51.4626H132.671C132.788 51.4552 132.904 51.4905 132.997 51.5621C133.032 51.5948 133.059 51.6347 133.078 51.679C133.096 51.7233 133.105 51.771 133.103 51.819C133.105 51.8676 133.097 51.9162 133.079 51.9614C133.061 52.0066 133.033 52.0474 132.998 52.0812C132.906 52.1553 132.789 52.1915 132.671 52.1825H130.698V53.5174H132.913C133.036 53.5084 133.157 53.5458 133.253 53.6223C133.291 53.6578 133.32 53.7009 133.339 53.7486C133.359 53.7963 133.368 53.8476 133.366 53.8991C133.367 53.9496 133.358 53.9999 133.338 54.0466C133.319 54.0933 133.29 54.1355 133.253 54.1704C133.157 54.2456 133.036 54.2823 132.913 54.2735H130.336C130.256 54.2814 130.176 54.2733 130.1 54.2497C130.023 54.226 129.952 54.1874 129.891 54.136C129.788 54.0117 129.739 53.8517 129.753 53.6911V50.1603C129.75 50.0462 129.771 49.9326 129.815 49.8275C129.852 49.7478 129.916 49.6838 129.996 49.6466C130.101 49.6033 130.214 49.583 130.327 49.5869H132.839C132.961 49.5775 133.081 49.6136 133.178 49.6882C133.213 49.7229 133.24 49.7641 133.259 49.8096C133.278 49.8551 133.288 49.9039 133.288 49.9532C133.288 50.0025 133.278 50.0513 133.259 50.0968C133.24 50.1423 133.213 50.1835 133.178 50.2182C133.082 50.2934 132.961 50.3302 132.839 50.3213" fill="white"/>
<path d="M135.639 53.1791L138.051 50.285H135.979C135.862 50.2941 135.745 50.26 135.65 50.1891C135.614 50.1584 135.585 50.1197 135.566 50.0762C135.547 50.0326 135.538 49.9853 135.54 49.9377C135.538 49.8883 135.547 49.8391 135.566 49.7934C135.585 49.7478 135.614 49.7069 135.65 49.6736C135.744 49.6001 135.861 49.564 135.979 49.5723H138.656C139.002 49.5723 139.174 49.7333 139.174 50.0571C139.179 50.1832 139.15 50.3085 139.089 50.4189C138.981 50.5741 138.865 50.7227 138.74 50.8638L136.486 53.5589H138.964C139.082 53.5499 139.199 53.5825 139.295 53.6512C139.332 53.6824 139.36 53.7217 139.379 53.7659C139.398 53.8102 139.406 53.8582 139.403 53.9062C139.406 53.956 139.397 54.0057 139.379 54.052C139.36 54.0982 139.331 54.1398 139.295 54.1739C139.201 54.2476 139.083 54.2831 138.964 54.2734H135.914C135.746 54.2854 135.58 54.2359 135.446 54.1341C135.394 54.0871 135.354 54.0293 135.327 53.965C135.3 53.9006 135.288 53.8312 135.29 53.7615C135.289 53.7115 135.298 53.6617 135.316 53.615C135.333 53.5693 135.356 53.5261 135.384 53.4866C135.413 53.4486 135.453 53.3979 135.506 53.3364C135.558 53.2749 135.601 53.2225 135.639 53.1791Z" fill="white"/>
<path d="M143.007 53.7417L142.782 53.152H140.874L140.646 53.7544C140.591 53.9215 140.516 54.0813 140.422 54.2301C140.384 54.2737 140.337 54.3077 140.284 54.3294C140.231 54.3511 140.173 54.3598 140.116 54.3549C140.057 54.3551 139.999 54.3436 139.945 54.3209C139.89 54.2982 139.841 54.2649 139.8 54.2229C139.757 54.1856 139.723 54.1398 139.699 54.0883C139.675 54.0369 139.663 53.981 139.662 53.9244C139.663 53.8568 139.674 53.7897 139.695 53.7254C139.716 53.6585 139.751 53.5608 139.8 53.4415L141.008 50.3918C141.04 50.305 141.082 50.1983 141.131 50.0771C141.17 49.9692 141.221 49.866 141.283 49.7696C141.338 49.6884 141.412 49.6214 141.498 49.5742C141.599 49.5189 141.712 49.4921 141.827 49.4965C141.943 49.4921 142.057 49.519 142.158 49.5742C142.244 49.6207 142.317 49.6863 142.373 49.766C142.428 49.8462 142.474 49.9316 142.511 50.021C142.549 50.1115 142.596 50.2327 142.654 50.3828L143.88 53.4125C143.957 53.5706 144.006 53.7407 144.025 53.9154C144.024 53.972 144.011 54.0278 143.988 54.0794C143.965 54.131 143.931 54.1774 143.889 54.2156C143.847 54.2599 143.796 54.295 143.739 54.3186C143.682 54.3423 143.621 54.354 143.56 54.3531C143.494 54.3543 143.428 54.3407 143.368 54.3133C143.316 54.2867 143.271 54.249 143.234 54.203C143.186 54.138 143.146 54.0668 143.117 53.9913C143.073 53.8973 143.039 53.8104 143.008 53.7399M141.125 52.4376H142.529L141.82 50.4967L141.125 52.4376Z" fill="white"/>
<path d="M146.306 53.5645L145.553 50.5745V53.8141C145.565 53.9592 145.522 54.1034 145.434 54.2192C145.394 54.2641 145.345 54.2995 145.29 54.323C145.235 54.3464 145.175 54.3573 145.116 54.3549C145.057 54.3566 144.998 54.3456 144.943 54.3225C144.889 54.2994 144.84 54.2648 144.801 54.2211C144.711 54.1053 144.668 53.9601 144.68 53.8141V50.1006C144.669 50.0235 144.678 49.945 144.706 49.8723C144.734 49.7996 144.78 49.7351 144.839 49.6846C144.969 49.6076 145.12 49.5705 145.271 49.5779H145.566C145.697 49.5714 145.828 49.5879 145.953 49.6267C145.994 49.6426 146.031 49.6669 146.063 49.6981C146.094 49.7292 146.118 49.7665 146.134 49.8076C146.188 49.9398 146.232 50.0759 146.266 50.2146L146.948 52.7867L147.63 50.2146C147.662 50.0754 147.706 49.9392 147.762 49.8076C147.778 49.7665 147.802 49.7292 147.833 49.6981C147.864 49.6669 147.902 49.6426 147.943 49.6267C148.067 49.5877 148.198 49.5712 148.328 49.5779H148.623C148.775 49.5705 148.926 49.6076 149.057 49.6846C149.116 49.7354 149.161 49.8 149.189 49.8726C149.217 49.9452 149.226 50.0235 149.216 50.1006V53.8141C149.228 53.9595 149.184 54.1041 149.095 54.2192C149.055 54.2643 149.005 54.2999 148.949 54.3234C148.893 54.3469 148.833 54.3576 148.773 54.3549C148.715 54.3565 148.657 54.3452 148.603 54.3217C148.55 54.2982 148.502 54.2633 148.464 54.2192C148.374 54.1041 148.331 53.9595 148.342 53.8141V50.5745L147.588 53.5645C147.539 53.7598 147.498 53.9027 147.469 53.9931C147.434 54.0895 147.375 54.175 147.297 54.241C147.237 54.2898 147.166 54.3251 147.091 54.3445C147.016 54.3639 146.937 54.367 146.861 54.3534C146.785 54.3399 146.712 54.3101 146.648 54.266C146.584 54.222 146.53 54.1647 146.49 54.0981C146.445 54.0199 146.411 53.9359 146.389 53.8484C146.364 53.758 146.34 53.6676 146.313 53.5645" fill="white"/>
<path d="M152.253 49.4982C152.689 49.486 153.121 49.5876 153.507 49.7931C153.851 49.9854 154.128 50.2799 154.299 50.636C154.486 51.037 154.578 51.4759 154.568 51.9184C154.572 52.2546 154.522 52.5892 154.42 52.9096C154.329 53.1945 154.178 53.4571 153.979 53.6802C153.78 53.9013 153.532 54.0729 153.255 54.1812C152.942 54.3037 152.609 54.3651 152.273 54.3621C151.936 54.3662 151.601 54.3048 151.287 54.1812C151.011 54.0719 150.763 53.9005 150.564 53.6802C150.363 53.455 150.213 53.1899 150.122 52.9024C150.021 52.5838 149.971 52.251 149.974 51.9166C149.971 51.5799 150.023 51.2449 150.13 50.9254C150.224 50.6406 150.377 50.3787 150.578 50.1566C150.779 49.9419 151.027 49.7761 151.302 49.6719C151.609 49.5543 151.935 49.4972 152.264 49.5037M153.615 51.9166C153.622 51.611 153.565 51.3074 153.449 51.0249C153.352 50.7899 153.186 50.59 152.973 50.4515C152.76 50.3209 152.514 50.2537 152.264 50.2579C152.082 50.2568 151.902 50.2938 151.736 50.3665C151.575 50.4365 151.432 50.543 151.32 50.6776C151.194 50.8324 151.101 51.0107 151.045 51.2021C150.974 51.4335 150.94 51.6746 150.944 51.9166C150.94 52.1615 150.974 52.4056 151.045 52.6401C151.101 52.8387 151.198 53.0235 151.329 53.1828C151.445 53.3188 151.589 53.4275 151.752 53.5011C151.943 53.5827 152.151 53.6184 152.359 53.6052C152.567 53.592 152.768 53.5303 152.948 53.4251C153.162 53.2891 153.331 53.0928 153.434 52.8608C153.563 52.5645 153.625 52.2433 153.615 51.9202" fill="white"/>
<path d="M156.659 52.2657H156.326V53.7743C156.34 53.9322 156.293 54.0894 156.194 54.2138C156.151 54.2605 156.098 54.2973 156.039 54.3217C155.98 54.346 155.916 54.3574 155.853 54.3549C155.785 54.3602 155.717 54.3495 155.654 54.3238C155.591 54.298 155.535 54.2578 155.491 54.2065C155.399 54.0818 155.355 53.9286 155.366 53.7743V50.1567C155.351 50.0769 155.356 49.9948 155.38 49.9173C155.404 49.8398 155.446 49.7693 155.504 49.712C155.561 49.6546 155.632 49.6121 155.709 49.5881C155.787 49.5641 155.869 49.5593 155.948 49.5742H157.497C157.678 49.572 157.859 49.581 158.039 49.6014C158.181 49.6165 158.319 49.6538 158.448 49.7117C158.596 49.7728 158.729 49.8633 158.841 49.9776C158.952 50.0929 159.04 50.2295 159.098 50.3791C159.157 50.5337 159.187 50.6982 159.186 50.8639C159.201 51.1723 159.095 51.4743 158.89 51.705C158.64 51.9408 158.324 52.0953 157.985 52.1481C158.168 52.2518 158.333 52.3864 158.47 52.5461C158.622 52.7211 158.76 52.9087 158.88 53.1068C158.989 53.28 159.083 53.4615 159.163 53.6494C159.214 53.7531 159.248 53.8642 159.264 53.9786C159.262 54.0435 159.241 54.1064 159.204 54.1595C159.164 54.2212 159.107 54.2711 159.041 54.3042C158.969 54.3416 158.888 54.3603 158.806 54.3585C158.71 54.3621 158.615 54.3348 158.535 54.2807C158.465 54.2314 158.403 54.1702 158.354 54.0998C158.302 54.0221 158.231 53.9099 158.141 53.758L157.761 53.1267C157.657 52.9354 157.536 52.7538 157.399 52.5841C157.309 52.4777 157.197 52.393 157.07 52.3363C156.936 52.2874 156.793 52.2647 156.65 52.2693M157.193 50.2941H156.314V51.5856H157.166C157.36 51.5899 157.553 51.5704 157.743 51.5277C157.881 51.4995 158.008 51.4287 158.104 51.3251C158.193 51.2141 158.237 51.0744 158.229 50.9326C158.232 50.811 158.198 50.6914 158.131 50.5901C158.063 50.4888 157.966 50.4107 157.853 50.3665C157.64 50.3055 157.419 50.281 157.198 50.2941" fill="white"/>
<path d="M163.106 53.7416L162.881 53.152H160.971L160.747 53.7543C160.693 53.9218 160.617 54.0816 160.523 54.23C160.486 54.2733 160.439 54.3072 160.386 54.3289C160.333 54.3506 160.276 54.3595 160.219 54.3548C160.16 54.3554 160.102 54.3439 160.047 54.3212C159.993 54.2985 159.943 54.2651 159.902 54.2228C159.859 54.1856 159.825 54.1398 159.801 54.0884C159.777 54.037 159.764 53.9811 159.763 53.9243C159.764 53.8567 159.775 53.7896 159.796 53.7254C159.817 53.6584 159.852 53.5608 159.902 53.4414L161.103 50.3918C161.136 50.3049 161.179 50.1982 161.226 50.077C161.266 49.969 161.317 49.8659 161.38 49.7695C161.434 49.688 161.508 49.6209 161.594 49.5742C161.696 49.5231 161.809 49.4964 161.924 49.4964C162.038 49.4964 162.151 49.5231 162.254 49.5742C162.34 49.6201 162.414 49.6858 162.469 49.7659C162.523 49.8461 162.569 49.9316 162.607 50.021C162.645 50.1114 162.692 50.2326 162.749 50.3827L163.979 53.4142C164.056 53.5724 164.105 53.7424 164.124 53.9171C164.123 53.9739 164.11 54.0299 164.087 54.0815C164.063 54.1332 164.029 54.1794 163.987 54.2174C163.92 54.2842 163.835 54.3293 163.742 54.3467C163.65 54.3641 163.554 54.3531 163.468 54.315C163.416 54.2875 163.369 54.25 163.332 54.2047C163.285 54.1388 163.247 54.0678 163.216 53.9931C163.173 53.899 163.138 53.8122 163.109 53.7416M161.225 52.4393H162.628L161.919 50.4985L161.225 52.4393Z" fill="white"/>
<path d="M170.46 52.7903C170.456 52.9578 170.418 53.1227 170.348 53.275C170.266 53.466 170.148 53.6397 170.001 53.7869C169.83 53.9642 169.625 54.104 169.397 54.1975C169.124 54.3065 168.832 54.36 168.538 54.3549C168.31 54.3573 168.083 54.333 167.861 54.2825C167.467 54.195 167.112 53.9801 166.852 53.6712C166.727 53.5198 166.621 53.354 166.535 53.1773C166.445 52.9905 166.376 52.7939 166.331 52.5913C166.286 52.3741 166.265 52.1528 166.266 51.9311C166.26 51.5858 166.316 51.2422 166.43 50.9164C166.533 50.6304 166.694 50.3691 166.904 50.1494C167.108 49.9375 167.355 49.7721 167.628 49.6647C167.908 49.5517 168.207 49.4945 168.509 49.4965C168.86 49.4907 169.208 49.5688 169.523 49.7244C169.794 49.8533 170.029 50.0471 170.207 50.2887C170.35 50.4692 170.433 50.69 170.444 50.92C170.444 51.0272 170.403 51.1302 170.328 51.2076C170.294 51.2474 170.251 51.2792 170.203 51.3008C170.155 51.3224 170.103 51.3331 170.05 51.3324C169.951 51.3402 169.852 51.3098 169.775 51.2474C169.693 51.1577 169.625 51.0566 169.572 50.9471C169.47 50.7411 169.32 50.5626 169.135 50.4262C168.951 50.3043 168.735 50.2412 168.514 50.2453C168.334 50.2396 168.156 50.277 167.993 50.3544C167.831 50.4318 167.69 50.547 167.581 50.6903C167.349 50.9887 167.234 51.4138 167.234 51.9564C167.225 52.265 167.277 52.5724 167.387 52.8608C167.473 53.0822 167.626 53.2717 167.823 53.4034C168.021 53.5264 168.25 53.5892 168.483 53.5843C168.73 53.5921 168.973 53.5204 169.176 53.3799C169.377 53.2292 169.527 53.0201 169.605 52.7812C169.638 52.6729 169.689 52.5708 169.755 52.4792C169.79 52.4381 169.835 52.406 169.885 52.3856C169.935 52.3652 169.989 52.3569 170.043 52.3616C170.152 52.3621 170.257 52.4058 170.335 52.4834C170.413 52.561 170.456 52.6661 170.457 52.7758" fill="white"/>
<path d="M172.273 50.0752V51.4191H174.326V50.0752C174.313 49.9198 174.36 49.7655 174.456 49.6428C174.499 49.595 174.552 49.5571 174.611 49.5321C174.67 49.5071 174.734 49.4955 174.798 49.4981C174.862 49.4957 174.927 49.507 174.987 49.5313C175.047 49.5557 175.101 49.5924 175.145 49.6392C175.242 49.763 175.289 49.9185 175.277 50.0752V53.7741C175.289 53.9311 175.241 54.0868 175.143 54.2101C175.1 54.2577 175.046 54.2954 174.987 54.3204C174.927 54.3453 174.863 54.3571 174.798 54.3548C174.733 54.3576 174.669 54.3459 174.609 54.3205C174.55 54.2952 174.497 54.2568 174.454 54.2082C174.36 54.0839 174.315 53.9296 174.326 53.7741V52.1951H172.273V53.7741C172.286 53.9312 172.238 54.0872 172.139 54.2101C172.095 54.2578 172.041 54.2954 171.981 54.3204C171.921 54.3454 171.857 54.3571 171.792 54.3548C171.727 54.3574 171.663 54.3457 171.604 54.3203C171.545 54.295 171.492 54.2567 171.45 54.2082C171.356 54.0839 171.31 53.9296 171.321 53.7741V50.0752C171.31 49.9205 171.355 49.7668 171.448 49.6428C171.491 49.5945 171.544 49.5564 171.603 49.5314C171.663 49.5063 171.727 49.495 171.792 49.4981C171.857 49.4957 171.921 49.507 171.981 49.5313C172.042 49.5556 172.096 49.5924 172.141 49.6392C172.238 49.7626 172.285 49.9184 172.273 50.0752Z" fill="white"/>
<path d="M176.339 53.7742V50.0752C176.327 49.9199 176.373 49.7656 176.469 49.6429C176.512 49.5951 176.564 49.5573 176.623 49.5319C176.682 49.5066 176.745 49.4945 176.809 49.4964C176.874 49.4942 176.938 49.5058 176.998 49.5304C177.058 49.5551 177.112 49.5922 177.157 49.6393C177.255 49.7624 177.303 49.9182 177.29 50.0752V53.7742C177.302 53.9312 177.254 54.0868 177.157 54.2101C177.113 54.2582 177.059 54.296 176.999 54.321C176.939 54.346 176.874 54.3576 176.809 54.3548C176.746 54.3566 176.682 54.3444 176.624 54.3191C176.565 54.2938 176.513 54.256 176.471 54.2083C176.374 54.0852 176.327 53.9304 176.339 53.7742Z" fill="white"/>
<path d="M179.593 50.068L181.422 52.8355V50.0409C181.411 49.8956 181.453 49.7513 181.539 49.6339C181.578 49.5888 181.627 49.5532 181.681 49.5297C181.736 49.5062 181.795 49.4954 181.854 49.4982C181.915 49.4952 181.975 49.5059 182.031 49.5294C182.087 49.5528 182.137 49.5886 182.178 49.6339C182.266 49.7507 182.308 49.8952 182.297 50.0409V53.7362C182.297 54.1468 182.125 54.3548 181.784 54.3548C181.706 54.3556 181.628 54.3434 181.554 54.3187C181.482 54.2918 181.416 54.2512 181.36 54.1993C181.298 54.1456 181.242 54.0849 181.194 54.0184C181.143 53.9479 181.091 53.8755 181.04 53.7995L179.257 51.0646V53.8032C179.268 53.9497 179.223 54.0949 179.132 54.2101C179.092 54.2554 179.043 54.2913 178.987 54.3153C178.932 54.3394 178.872 54.351 178.812 54.3494C178.751 54.3517 178.69 54.3403 178.634 54.3158C178.578 54.2914 178.528 54.2547 178.488 54.2083C178.399 54.0927 178.356 53.9485 178.367 53.8032V50.1856C178.361 50.0629 178.379 49.9403 178.417 49.8238C178.459 49.7262 178.529 49.6435 178.618 49.5869C178.709 49.5268 178.815 49.4953 178.924 49.4964C178.999 49.4944 179.073 49.508 179.143 49.5362C179.203 49.5638 179.258 49.6025 179.304 49.6502C179.356 49.7058 179.404 49.7664 179.445 49.831L179.593 50.0644" fill="white"/>
<path d="M187.338 52.7903C187.335 52.9577 187.297 53.1226 187.228 53.275C187.144 53.4653 187.027 53.6388 186.881 53.7869C186.709 53.9642 186.503 54.104 186.275 54.1975C186.002 54.3066 185.711 54.3601 185.417 54.3549C185.19 54.3575 184.963 54.3332 184.741 54.2825C184.546 54.2391 184.359 54.1646 184.187 54.0619C184.015 53.9576 183.861 53.8256 183.732 53.6712C183.605 53.5212 183.498 53.3551 183.415 53.1774C183.325 52.9909 183.259 52.794 183.218 52.5913C183.173 52.3742 183.15 52.1529 183.151 51.9311C183.146 51.5857 183.202 51.2421 183.317 50.9164C183.419 50.6305 183.58 50.3693 183.79 50.1494C183.993 49.9375 184.24 49.7721 184.513 49.6647C184.794 49.5517 185.093 49.4945 185.396 49.4965C185.747 49.4913 186.095 49.5694 186.41 49.7244C186.68 49.8543 186.914 50.048 187.092 50.2887C187.235 50.4693 187.318 50.69 187.329 50.92C187.329 51.0272 187.288 51.1302 187.214 51.2076C187.179 51.2474 187.136 51.2793 187.088 51.3008C187.04 51.3224 186.988 51.3332 186.935 51.3324C186.836 51.3404 186.739 51.3099 186.662 51.2474C186.579 51.1579 186.51 51.0567 186.458 50.9471C186.356 50.7414 186.206 50.5628 186.022 50.4262C185.838 50.3043 185.622 50.2412 185.401 50.2453C185.221 50.2395 185.043 50.2768 184.88 50.3542C184.718 50.4316 184.576 50.5469 184.468 50.6903C184.234 50.9887 184.121 51.4138 184.121 51.9564C184.112 52.2651 184.164 52.5724 184.274 52.8608C184.36 53.0826 184.512 53.2722 184.71 53.4035C184.907 53.5264 185.136 53.5892 185.369 53.5843C185.615 53.5924 185.858 53.5207 186.061 53.3799C186.262 53.2292 186.412 53.0202 186.49 52.7812C186.523 52.6729 186.574 52.5709 186.64 52.4792C186.676 52.438 186.72 52.4058 186.771 52.3854C186.821 52.3649 186.875 52.3568 186.93 52.3616C186.984 52.3609 187.038 52.3713 187.088 52.3921C187.138 52.4129 187.183 52.4438 187.221 52.4828C187.26 52.5204 187.292 52.566 187.312 52.6165C187.333 52.6669 187.343 52.7212 187.342 52.7758" fill="white"/>
<path d="M189.151 50.0752V51.4191H191.205V50.0752C191.193 49.92 191.238 49.7657 191.334 49.6428C191.377 49.595 191.429 49.5571 191.489 49.5321C191.548 49.5071 191.612 49.4955 191.676 49.4981C191.74 49.4957 191.805 49.507 191.865 49.5313C191.924 49.5557 191.978 49.5924 192.023 49.6392C192.121 49.7626 192.168 49.9184 192.155 50.0752V53.7741C192.168 53.9312 192.12 54.0872 192.021 54.2101C191.978 54.2578 191.924 54.2955 191.864 54.3205C191.805 54.3455 191.74 54.3572 191.676 54.3548C191.611 54.3578 191.547 54.3463 191.488 54.3209C191.429 54.2955 191.376 54.257 191.334 54.2082C191.239 54.0842 191.193 53.9297 191.205 53.7741V52.1951H189.151V53.7741C189.162 53.9311 189.115 54.0868 189.017 54.2101C188.973 54.2579 188.919 54.2956 188.859 54.3206C188.799 54.3456 188.734 54.3572 188.67 54.3548C188.605 54.3573 188.541 54.3455 188.482 54.3201C188.423 54.2948 188.37 54.2566 188.328 54.2082C188.234 54.0839 188.188 53.9296 188.199 53.7741V50.0752C188.187 49.9204 188.232 49.7664 188.326 49.6428C188.369 49.5945 188.422 49.5564 188.481 49.5314C188.541 49.5063 188.605 49.495 188.67 49.4981C188.734 49.4957 188.799 49.507 188.859 49.5313C188.919 49.5556 188.974 49.5924 189.019 49.6392C189.116 49.7626 189.163 49.9184 189.151 50.0752Z" fill="white"/>
<path d="M193.217 53.7743V50.0753C193.204 49.9196 193.251 49.765 193.349 49.643C193.391 49.595 193.443 49.557 193.502 49.5317C193.56 49.5064 193.623 49.4943 193.687 49.4965C193.752 49.4944 193.817 49.506 193.877 49.5306C193.937 49.5552 193.991 49.5923 194.036 49.6394C194.133 49.7632 194.18 49.9186 194.168 50.0753V53.7743C194.18 53.9309 194.133 54.0862 194.036 54.2102C193.992 54.2583 193.938 54.2961 193.878 54.3211C193.817 54.3461 193.752 54.3576 193.687 54.3549C193.624 54.3563 193.56 54.3439 193.502 54.3186C193.444 54.2934 193.391 54.2557 193.349 54.2084C193.252 54.0853 193.205 53.9304 193.217 53.7743Z" fill="white"/>
<path d="M197.053 52.4448H196.176V53.7743C196.186 53.9299 196.139 54.0839 196.042 54.2066C195.998 54.2532 195.945 54.2903 195.886 54.3157C195.827 54.3411 195.763 54.3542 195.699 54.3542C195.634 54.3542 195.571 54.3411 195.512 54.3157C195.452 54.2903 195.399 54.2532 195.355 54.2066C195.26 54.0846 195.214 53.9319 195.225 53.7779V50.1603C195.217 50.0797 195.225 49.9984 195.25 49.9212C195.274 49.8441 195.314 49.7728 195.368 49.7117C195.499 49.6118 195.663 49.5642 195.827 49.5779H197.046C197.327 49.5697 197.607 49.5976 197.88 49.6611C198.064 49.7101 198.234 49.8011 198.377 49.9269C198.519 50.0502 198.628 50.206 198.696 50.381C198.771 50.5741 198.808 50.7797 198.806 50.9869C198.82 51.1896 198.787 51.3927 198.71 51.5807C198.633 51.7688 198.514 51.9368 198.363 52.0722C198.07 52.32 197.629 52.4339 197.046 52.4339M196.816 50.2797H196.176V51.7159H196.816C197.006 51.7213 197.196 51.6975 197.379 51.6453C197.516 51.6077 197.636 51.5264 197.723 51.4138C197.807 51.2914 197.849 51.1445 197.842 50.9959C197.85 50.81 197.785 50.6282 197.661 50.4895C197.524 50.3502 197.243 50.2797 196.818 50.2797" fill="white"/>
<path d="M429.131 34.2812V48.5H426.436L420.391 38.6367V48.5H417.705V34.2812H420.391L426.455 44.1543V34.2812H429.131ZM431.211 43.3242V43.1191C431.211 42.3444 431.322 41.6315 431.543 40.9805C431.764 40.3229 432.087 39.7533 432.51 39.2715C432.933 38.7897 433.451 38.4154 434.062 38.1484C434.674 37.875 435.371 37.7383 436.152 37.7383C436.947 37.7383 437.65 37.875 438.262 38.1484C438.88 38.4154 439.401 38.7897 439.824 39.2715C440.247 39.7533 440.57 40.3229 440.791 40.9805C441.012 41.6315 441.123 42.3444 441.123 43.1191V43.3242C441.123 44.0924 441.012 44.8053 440.791 45.4629C440.57 46.1139 440.247 46.6836 439.824 47.1719C439.401 47.6536 438.883 48.028 438.271 48.2949C437.66 48.5618 436.96 48.6953 436.172 48.6953C435.391 48.6953 434.691 48.5618 434.072 48.2949C433.454 48.028 432.933 47.6536 432.51 47.1719C432.087 46.6836 431.764 46.1139 431.543 45.4629C431.322 44.8053 431.211 44.0924 431.211 43.3242ZM433.789 43.1191V43.3242C433.789 43.7865 433.835 44.2194 433.926 44.623C434.017 45.0267 434.157 45.3815 434.346 45.6875C434.535 45.9935 434.779 46.2344 435.078 46.4102C435.384 46.5794 435.749 46.6641 436.172 46.6641C436.589 46.6641 436.947 46.5794 437.246 46.4102C437.546 46.2344 437.79 45.9935 437.979 45.6875C438.174 45.3815 438.317 45.0267 438.408 44.623C438.499 44.2194 438.545 43.7865 438.545 43.3242V43.1191C438.545 42.6634 438.499 42.237 438.408 41.8398C438.317 41.4362 438.174 41.0814 437.979 40.7754C437.79 40.4629 437.542 40.2188 437.236 40.043C436.937 39.8607 436.576 39.7695 436.152 39.7695C435.736 39.7695 435.378 39.8607 435.078 40.043C434.779 40.2188 434.535 40.4629 434.346 40.7754C434.157 41.0814 434.017 41.4362 433.926 41.8398C433.835 42.237 433.789 42.6634 433.789 43.1191ZM447.998 37.9336V39.7891H441.943V37.9336H447.998ZM443.564 35.3359H446.152V45.4531C446.152 45.7656 446.195 46.0065 446.279 46.1758C446.364 46.3451 446.491 46.459 446.66 46.5176C446.829 46.5762 447.031 46.6055 447.266 46.6055C447.435 46.6055 447.591 46.5957 447.734 46.5762C447.878 46.5566 447.998 46.5371 448.096 46.5176L448.105 48.4512C447.891 48.5228 447.646 48.5814 447.373 48.627C447.106 48.6725 446.803 48.6953 446.465 48.6953C445.885 48.6953 445.378 48.5977 444.941 48.4023C444.505 48.2005 444.167 47.8783 443.926 47.4355C443.685 46.9863 443.564 46.3939 443.564 45.6582V35.3359ZM452.451 37.9336V48.5H449.863V37.9336H452.451ZM449.688 35.1699C449.688 34.7858 449.818 34.4668 450.078 34.2129C450.345 33.959 450.703 33.832 451.152 33.832C451.602 33.832 451.956 33.959 452.217 34.2129C452.484 34.4668 452.617 34.7858 452.617 35.1699C452.617 35.5475 452.484 35.8633 452.217 36.1172C451.956 36.3711 451.602 36.498 451.152 36.498C450.703 36.498 450.345 36.3711 450.078 36.1172C449.818 35.8633 449.688 35.5475 449.688 35.1699ZM458.174 48.5H455.576V37.3477C455.576 36.4753 455.752 35.7396 456.104 35.1406C456.462 34.5352 456.973 34.0762 457.637 33.7637C458.307 33.4512 459.105 33.2949 460.029 33.2949C460.57 33.2949 461.09 33.3503 461.592 33.4609C462.1 33.5651 462.62 33.7018 463.154 33.8711L462.773 35.9609C462.428 35.8503 462.051 35.7461 461.641 35.6484C461.237 35.5508 460.758 35.502 460.205 35.502C459.521 35.502 459.01 35.6582 458.672 35.9707C458.34 36.2832 458.174 36.7422 458.174 37.3477V48.5ZM460.283 37.9336V39.7891H453.984V37.9336H460.283ZM464.365 37.9336V48.5H461.777V37.9336H464.365ZM471.201 46.6641C471.566 46.6641 471.891 46.5924 472.178 46.4492C472.464 46.306 472.692 46.1042 472.861 45.8438C473.037 45.5833 473.132 45.2806 473.145 44.9355H475.576C475.563 45.6517 475.361 46.293 474.971 46.8594C474.58 47.4258 474.059 47.875 473.408 48.207C472.764 48.5326 472.041 48.6953 471.24 48.6953C470.426 48.6953 469.717 48.5586 469.111 48.2852C468.506 48.0117 468.001 47.6309 467.598 47.1426C467.201 46.6543 466.901 46.0879 466.699 45.4434C466.504 44.7988 466.406 44.1087 466.406 43.373V43.0605C466.406 42.3249 466.504 41.6348 466.699 40.9902C466.901 40.3457 467.201 39.7793 467.598 39.291C468.001 38.8027 468.506 38.4219 469.111 38.1484C469.717 37.875 470.423 37.7383 471.23 37.7383C472.083 37.7383 472.832 37.9043 473.477 38.2363C474.128 38.5684 474.635 39.0371 475 39.6426C475.371 40.248 475.563 40.9609 475.576 41.7812H473.145C473.132 41.4036 473.047 41.0651 472.891 40.7656C472.734 40.4661 472.513 40.2253 472.227 40.043C471.94 39.8607 471.592 39.7695 471.182 39.7695C470.745 39.7695 470.381 39.8607 470.088 40.043C469.801 40.2253 469.577 40.4759 469.414 40.7949C469.258 41.1074 469.147 41.459 469.082 41.8496C469.023 42.2337 468.994 42.6374 468.994 43.0605V43.373C468.994 43.8027 469.023 44.2129 469.082 44.6035C469.147 44.9941 469.258 45.3457 469.414 45.6582C469.577 45.9642 469.801 46.2083 470.088 46.3906C470.381 46.5729 470.752 46.6641 471.201 46.6641ZM483.115 46.2539V41.3809C483.115 41.0228 483.053 40.7135 482.93 40.4531C482.806 40.1927 482.617 39.9909 482.363 39.8477C482.109 39.7044 481.787 39.6328 481.396 39.6328C481.051 39.6328 480.749 39.6914 480.488 39.8086C480.234 39.9258 480.039 40.0918 479.902 40.3066C479.766 40.515 479.697 40.7559 479.697 41.0293H477.109C477.109 40.5931 477.214 40.1797 477.422 39.7891C477.63 39.3919 477.926 39.0404 478.311 38.7344C478.701 38.4219 479.167 38.1777 479.707 38.002C480.254 37.8262 480.866 37.7383 481.543 37.7383C482.344 37.7383 483.057 37.875 483.682 38.1484C484.313 38.4154 484.808 38.819 485.166 39.3594C485.531 39.8997 485.713 40.5801 485.713 41.4004V46.0098C485.713 46.5371 485.745 46.9896 485.811 47.3672C485.882 47.7383 485.986 48.0605 486.123 48.334V48.5H483.496C483.372 48.2331 483.278 47.8945 483.213 47.4844C483.148 47.0677 483.115 46.6576 483.115 46.2539ZM483.477 42.0645L483.496 43.5977H481.865C481.462 43.5977 481.107 43.64 480.801 43.7246C480.495 43.8027 480.244 43.9199 480.049 44.0762C479.854 44.2259 479.707 44.4082 479.609 44.623C479.512 44.8314 479.463 45.069 479.463 45.3359C479.463 45.5964 479.521 45.8307 479.639 46.0391C479.762 46.2474 479.938 46.4134 480.166 46.5371C480.4 46.6543 480.674 46.7129 480.986 46.7129C481.442 46.7129 481.839 46.6217 482.178 46.4395C482.516 46.2507 482.78 46.0228 482.969 45.7559C483.158 45.4889 483.258 45.235 483.271 44.9941L484.014 46.1074C483.923 46.3743 483.786 46.6576 483.604 46.957C483.421 47.2565 483.187 47.5365 482.9 47.7969C482.614 48.0573 482.269 48.2721 481.865 48.4414C481.462 48.6107 480.993 48.6953 480.459 48.6953C479.775 48.6953 479.163 48.5586 478.623 48.2852C478.083 48.0117 477.656 47.6374 477.344 47.1621C477.031 46.6868 476.875 46.1465 476.875 45.541C476.875 44.9811 476.979 44.4863 477.188 44.0566C477.396 43.627 477.705 43.2656 478.115 42.9727C478.525 42.6732 479.033 42.4486 479.639 42.2988C480.251 42.1426 480.951 42.0645 481.738 42.0645H483.477ZM492.373 46.6641C492.738 46.6641 493.063 46.5924 493.35 46.4492C493.636 46.306 493.864 46.1042 494.033 45.8438C494.209 45.5833 494.303 45.2806 494.316 44.9355H496.748C496.735 45.6517 496.533 46.293 496.143 46.8594C495.752 47.4258 495.231 47.875 494.58 48.207C493.936 48.5326 493.213 48.6953 492.412 48.6953C491.598 48.6953 490.889 48.5586 490.283 48.2852C489.678 48.0117 489.173 47.6309 488.77 47.1426C488.372 46.6543 488.073 46.0879 487.871 45.4434C487.676 44.7988 487.578 44.1087 487.578 43.373V43.0605C487.578 42.3249 487.676 41.6348 487.871 40.9902C488.073 40.3457 488.372 39.7793 488.77 39.291C489.173 38.8027 489.678 38.4219 490.283 38.1484C490.889 37.875 491.595 37.7383 492.402 37.7383C493.255 37.7383 494.004 37.9043 494.648 38.2363C495.299 38.5684 495.807 39.0371 496.172 39.6426C496.543 40.248 496.735 40.9609 496.748 41.7812H494.316C494.303 41.4036 494.219 41.0651 494.062 40.7656C493.906 40.4661 493.685 40.2253 493.398 40.043C493.112 39.8607 492.764 39.7695 492.354 39.7695C491.917 39.7695 491.553 39.8607 491.26 40.043C490.973 40.2253 490.749 40.4759 490.586 40.7949C490.43 41.1074 490.319 41.459 490.254 41.8496C490.195 42.2337 490.166 42.6374 490.166 43.0605V43.373C490.166 43.8027 490.195 44.2129 490.254 44.6035C490.319 44.9941 490.43 45.3457 490.586 45.6582C490.749 45.9642 490.973 46.2083 491.26 46.3906C491.553 46.5729 491.924 46.6641 492.373 46.6641ZM501.201 37.9336V48.5H498.613V37.9336H501.201ZM498.438 35.1699C498.438 34.7858 498.568 34.4668 498.828 34.2129C499.095 33.959 499.453 33.832 499.902 33.832C500.352 33.832 500.706 33.959 500.967 34.2129C501.234 34.4668 501.367 34.7858 501.367 35.1699C501.367 35.5475 501.234 35.8633 500.967 36.1172C500.706 36.3711 500.352 36.498 499.902 36.498C499.453 36.498 499.095 36.3711 498.828 36.1172C498.568 35.8633 498.438 35.5475 498.438 35.1699ZM503.203 43.3242V43.1191C503.203 42.3444 503.314 41.6315 503.535 40.9805C503.757 40.3229 504.079 39.7533 504.502 39.2715C504.925 38.7897 505.443 38.4154 506.055 38.1484C506.667 37.875 507.363 37.7383 508.145 37.7383C508.939 37.7383 509.642 37.875 510.254 38.1484C510.872 38.4154 511.393 38.7897 511.816 39.2715C512.24 39.7533 512.562 40.3229 512.783 40.9805C513.005 41.6315 513.115 42.3444 513.115 43.1191V43.3242C513.115 44.0924 513.005 44.8053 512.783 45.4629C512.562 46.1139 512.24 46.6836 511.816 47.1719C511.393 47.6536 510.876 48.028 510.264 48.2949C509.652 48.5618 508.952 48.6953 508.164 48.6953C507.383 48.6953 506.683 48.5618 506.064 48.2949C505.446 48.028 504.925 47.6536 504.502 47.1719C504.079 46.6836 503.757 46.1139 503.535 45.4629C503.314 44.8053 503.203 44.0924 503.203 43.3242ZM505.781 43.1191V43.3242C505.781 43.7865 505.827 44.2194 505.918 44.623C506.009 45.0267 506.149 45.3815 506.338 45.6875C506.527 45.9935 506.771 46.2344 507.07 46.4102C507.376 46.5794 507.741 46.6641 508.164 46.6641C508.581 46.6641 508.939 46.5794 509.238 46.4102C509.538 46.2344 509.782 45.9935 509.971 45.6875C510.166 45.3815 510.309 45.0267 510.4 44.623C510.492 44.2194 510.537 43.7865 510.537 43.3242V43.1191C510.537 42.6634 510.492 42.237 510.4 41.8398C510.309 41.4362 510.166 41.0814 509.971 40.7754C509.782 40.4629 509.535 40.2188 509.229 40.043C508.929 39.8607 508.568 39.7695 508.145 39.7695C507.728 39.7695 507.37 39.8607 507.07 40.043C506.771 40.2188 506.527 40.4629 506.338 40.7754C506.149 41.0814 506.009 41.4362 505.918 41.8398C505.827 42.237 505.781 42.6634 505.781 43.1191ZM506.865 36.4688L508.779 33.5H511.631L508.965 36.4688H506.865ZM517.52 40.1895V48.5H514.941V37.9336H517.363L517.52 40.1895ZM517.109 42.8359H516.348C516.354 42.0677 516.458 41.3711 516.66 40.7461C516.862 40.1211 517.145 39.584 517.51 39.1348C517.881 38.6855 518.32 38.3405 518.828 38.0996C519.336 37.8587 519.902 37.7383 520.527 37.7383C521.035 37.7383 521.494 37.8099 521.904 37.9531C522.314 38.0964 522.666 38.3242 522.959 38.6367C523.258 38.9492 523.486 39.3594 523.643 39.8672C523.805 40.3685 523.887 40.987 523.887 41.7227V48.5H521.289V41.7031C521.289 41.2214 521.217 40.8405 521.074 40.5605C520.938 40.2806 520.736 40.082 520.469 39.9648C520.208 39.8477 519.886 39.7891 519.502 39.7891C519.105 39.7891 518.757 39.8704 518.457 40.0332C518.164 40.1895 517.917 40.4076 517.715 40.6875C517.52 40.9674 517.37 41.2897 517.266 41.6543C517.161 42.0189 517.109 42.4128 517.109 42.8359Z" fill="white"/>
</g>
<defs>
<clipPath id="clip0_4313_1462">
<rect width="530" height="44" fill="white" transform="translate(10 20)"/>
</clipPath>
</defs>
</svg>
