<svg width="12" height="12" viewBox="0 0 12 12" fill="none" xmlns="http://www.w3.org/2000/svg">
<path d="M8.80629 6.44862C8.42198 6.28458 7.97674 6.39238 7.71194 6.71576L6.93395 7.66716C5.85602 7.04148 4.95617 6.14164 4.3305 5.0637L5.27955 4.28806C5.60293 4.02326 5.71307 3.57802 5.54669 3.19371L4.42189 0.569169C4.24614 0.15674 3.80325 -0.0729072 3.36504 0.0208265L0.740497 0.583229C0.309321 0.674619 0 1.05658 0 1.49948C0 7.04617 4.30004 11.5876 9.74831 11.9719C9.85376 11.9789 9.96155 11.9859 10.0693 11.9906C10.0693 11.9906 10.0693 11.9906 10.0717 11.9906C10.2146 11.9953 10.3552 12 10.5005 12C10.9434 12 11.3254 11.6907 11.4168 11.2595L11.9792 8.63496C12.0729 8.19675 11.8433 7.75386 11.4308 7.57811L8.80629 6.4533V6.44862ZM10.4911 11.2478C5.11083 11.2431 0.74987 6.88214 0.74987 1.49948C0.74987 1.41043 0.810797 1.33544 0.897501 1.3167L3.52205 0.754293C3.60875 0.735546 3.6978 0.782413 3.73295 0.86443L4.85775 3.48898C4.89056 3.56631 4.86947 3.65535 4.80385 3.70691L3.85246 4.4849C3.56891 4.71689 3.49393 5.12229 3.67905 5.44098C4.37034 6.63374 5.36391 7.62732 6.55433 8.31626C6.87303 8.50139 7.27843 8.4264 7.51042 8.14286L8.28841 7.19146C8.3423 7.12584 8.43135 7.10475 8.50634 7.13756L11.1309 8.26237C11.2129 8.29752 11.2598 8.38656 11.241 8.47327L10.6786 11.0978C10.6599 11.1845 10.5825 11.2454 10.4958 11.2454C10.4935 11.2454 10.4911 11.2454 10.4888 11.2454L10.4911 11.2478Z" fill="#414141"/>
</svg>
