<svg width="26" height="22" viewBox="0 0 26 22" fill="none" xmlns="http://www.w3.org/2000/svg">
<path d="M12.6289 2.61621C12.707 2.48438 12.8486 2.40625 13 2.40625C13.1514 2.40625 13.293 2.48438 13.3711 2.61621L23.0537 18.5195C23.1221 18.6318 23.1562 18.7588 23.1562 18.8857C23.1562 19.2764 22.8389 19.5938 22.4482 19.5938H3.55176C3.16113 19.5938 2.84375 19.2764 2.84375 18.8857C2.84375 18.7539 2.87793 18.627 2.94629 18.5195L12.6289 2.61621ZM10.627 1.39551L0.944336 17.2988C0.651367 17.7773 0.5 18.3242 0.5 18.8857C0.5 20.5703 1.86719 21.9375 3.55176 21.9375H22.4482C24.1328 21.9375 25.5 20.5703 25.5 18.8857C25.5 18.3242 25.3438 17.7773 25.0557 17.2988L15.373 1.39551C14.8701 0.570312 13.9717 0.0625 13 0.0625C12.0283 0.0625 11.1299 0.570312 10.627 1.39551ZM14.5625 16.4688C14.5625 16.0543 14.3979 15.6569 14.1049 15.3639C13.8118 15.0709 13.4144 14.9062 13 14.9062C12.5856 14.9062 12.1882 15.0709 11.8951 15.3639C11.6021 15.6569 11.4375 16.0543 11.4375 16.4688C11.4375 16.8832 11.6021 17.2806 11.8951 17.5736C12.1882 17.8666 12.5856 18.0312 13 18.0312C13.4144 18.0312 13.8118 17.8666 14.1049 17.5736C14.3979 17.2806 14.5625 16.8832 14.5625 16.4688ZM14.1719 7.48438C14.1719 6.83496 13.6494 6.3125 13 6.3125C12.3506 6.3125 11.8281 6.83496 11.8281 7.48438V12.1719C11.8281 12.8213 12.3506 13.3438 13 13.3438C13.6494 13.3438 14.1719 12.8213 14.1719 12.1719V7.48438Z" fill="#E88E18"/>
</svg>
